<svg width="100" height="24" viewBox="0 0 100 24" fill="none" xmlns="http://www.w3.org/2000/svg">
<path fill-rule="evenodd" clip-rule="evenodd" d="M22.7114 6.64624H26.0267V7.02266C26.0267 7.23346 26.0719 7.39908 26.1473 7.39908C26.2076 7.39908 26.5542 7.29369 26.9309 7.17323C27.3076 7.03772 28.0159 6.87209 28.5132 6.79681C29.126 6.69643 29.8293 6.69643 30.6229 6.79681C31.4065 6.90221 32.2052 7.14312 32.8834 7.45931C33.5314 7.76045 34.2245 8.24227 34.6616 8.69397C35.0684 9.10051 35.5657 9.77807 35.7616 10.1846C35.9726 10.6062 36.2137 11.3741 36.3041 11.9161C36.4398 12.669 36.4398 13.1358 36.3041 13.9488C36.2137 14.521 35.9425 15.3792 35.7164 15.8309C35.4904 16.2826 34.9931 16.9602 34.6164 17.3366C34.2396 17.713 33.5615 18.2099 33.1094 18.4358C32.6573 18.6616 31.7682 18.9477 31.1504 19.0832C30.3969 19.2488 29.6735 19.294 28.9954 19.2338C28.4378 19.1886 27.5789 19.0079 27.0816 18.8423C26.5843 18.6767 26.1473 18.5412 26.1021 18.5412C26.0569 18.5412 26.0267 19.6554 26.0267 23.5099H22.7114V6.64624ZM27.0515 10.5008C26.8254 10.7417 26.5391 11.1934 26.4185 11.4946C26.2829 11.8107 26.1774 12.4883 26.1774 13.0002C26.1774 13.5875 26.2829 14.1747 26.4637 14.5511C26.6144 14.8823 26.961 15.3642 27.2474 15.6201C27.5337 15.861 28.031 16.1622 28.3625 16.2676C28.7091 16.388 29.3872 16.4483 29.9599 16.4181C30.7133 16.373 31.0901 16.2676 31.5723 15.9363C31.9189 15.7105 32.3861 15.2136 32.6121 14.8071C32.9738 14.2048 33.0341 13.9338 33.0341 12.9701C33.0341 12.0065 32.9738 11.7355 32.6121 11.1181C32.3861 10.7267 31.9189 10.2298 31.5723 9.98887C31.0449 9.65761 30.7586 9.58233 29.8092 9.53716C28.9351 9.50705 28.5283 9.56727 28.0611 9.77807C27.7296 9.94369 27.2775 10.2599 27.0515 10.5008ZM93.6889 6.75164C94.0657 6.78175 94.6835 6.87209 95.0904 6.96243C95.4822 7.03772 96.2055 7.29369 96.7028 7.54965C97.2001 7.79056 97.9235 8.31755 98.3002 8.70903C98.6769 9.11557 99.1592 9.76301 99.3551 10.1846C99.566 10.5911 99.8072 11.3741 99.8976 11.9161C100.033 12.669 100.033 13.1358 99.8976 13.9488C99.8072 14.521 99.5359 15.3792 99.3099 15.8309C99.0838 16.2826 98.6016 16.9602 98.2249 17.3517C97.833 17.7281 97.1549 18.2099 96.7028 18.4358C96.2507 18.6616 95.3014 18.9628 94.5931 19.0983C93.5081 19.3091 93.1313 19.3241 92.1066 19.1736C91.3984 19.0682 90.5092 18.7971 89.9667 18.5412C89.4393 18.2852 88.6708 17.7733 88.2488 17.3667C87.7817 16.9301 87.2994 16.2826 87.0131 15.6804C86.6062 14.8522 86.5309 14.4909 86.4706 13.3465C86.4405 12.413 86.4857 11.7355 86.6515 11.1633C86.7871 10.7116 87.1186 9.98887 87.4049 9.58233C87.6762 9.16074 88.2488 8.55846 88.6557 8.21215C89.0626 7.8809 89.801 7.45931 90.2983 7.26357C90.7956 7.08289 91.6093 6.87209 92.1066 6.79681C92.6039 6.73658 93.3122 6.70647 93.6889 6.75164ZM90.6449 10.5008C90.4188 10.7417 90.1325 11.1934 90.012 11.4946C89.8763 11.8107 89.7708 12.4883 89.7708 13.0002C89.7708 13.5875 89.8763 14.1747 90.0572 14.5511C90.2079 14.8823 90.5545 15.3642 90.8408 15.6201C91.1271 15.861 91.6244 16.1622 91.9559 16.2676C92.3025 16.388 92.9807 16.4483 93.5684 16.4181C94.3821 16.373 94.6835 16.2676 95.226 15.9062C95.5726 15.6502 96.0398 15.1383 96.2507 14.7769C96.5521 14.2198 96.6275 13.8886 96.6275 12.9701C96.6275 12.0517 96.5521 11.7204 96.2507 11.1633C96.0398 10.8019 95.5726 10.29 95.226 10.034C94.6534 9.64256 94.4123 9.58233 93.4177 9.53716C92.5286 9.50705 92.1217 9.56727 91.6545 9.77807C91.323 9.94369 90.8709 10.2599 90.6449 10.5008Z" fill="white"/>
<path d="M16.0507 4.99006C15.6439 4.32756 15.3274 3.72528 15.3274 3.63494C15.3274 3.5446 15.9302 3.48438 16.8343 3.48438C17.7385 3.48438 18.3413 3.5446 18.3413 3.63494C18.3413 3.72528 18.055 4.32756 17.7084 4.99006C17.3467 5.65256 16.985 6.19461 16.9097 6.19461C16.8343 6.19461 16.4425 5.65256 16.0507 4.99006Z" fill="white"/>
<path fill-rule="evenodd" clip-rule="evenodd" d="M11.4394 0.05131C11.4997 0.0814238 13.8656 3.90587 21.8072 17.0355V19.1434H20.7072C19.9989 19.1585 19.5619 19.0832 19.4564 18.9627C19.3509 18.8573 17.5426 15.8911 15.4177 12.3678C13.2929 8.84452 11.4846 5.96866 11.4093 5.96866C11.3339 5.96866 9.9023 8.22719 8.24465 10.9826C6.587 13.7229 5.23074 16.0266 5.23074 16.1019C5.23074 16.1622 5.5472 16.1622 5.93901 16.1019C6.34589 16.0417 6.82811 15.8761 7.03909 15.7105C7.25006 15.5599 8.32 13.9488 9.42007 12.1269C10.5051 10.3201 11.4545 8.81441 11.5298 8.78429C11.5901 8.76924 11.997 9.35646 12.434 10.1093C12.9162 10.9525 13.1875 11.5698 13.1272 11.7354C13.082 11.871 12.3134 13.211 11.4243 14.7016C10.5201 16.1923 9.5557 17.6076 9.28445 17.8485C8.99813 18.0894 8.39534 18.4659 7.94326 18.6767C7.1295 19.0531 7.03909 19.0681 3.54295 19.1133C0.544117 19.1434 -0.0435946 19.1133 0.00161401 18.9326C0.0166835 18.8122 2.56343 14.521 5.66776 9.37151C8.77208 4.22206 11.364 0.0362532 11.4394 0.05131ZM83.0498 1.97859C83.6375 1.97859 83.8184 2.05387 84.2704 2.50558C84.6773 2.91212 84.7979 3.15302 84.7979 3.55956C84.7979 3.84564 84.6773 4.28229 84.5417 4.53826C84.391 4.77917 84.1198 5.05019 83.9389 5.14053C83.743 5.21582 83.3211 5.2911 82.9895 5.2911C82.5073 5.2911 82.2813 5.1857 81.8593 4.76411C81.4223 4.32746 81.3319 4.13172 81.347 3.61979C81.362 3.13797 81.4675 2.89706 81.8593 2.49052C82.2813 2.05387 82.4621 1.97859 83.0498 1.97859ZM52.6998 2.27973H55.8644V19.1434H52.6998V2.27973ZM57.6727 2.27973H60.8373V19.1434H57.6727V2.27973ZM44.8636 6.75162C45.2404 6.78173 45.8582 6.87207 46.2651 6.96241C46.6569 7.0377 47.3652 7.29366 47.8474 7.53457C48.3447 7.79054 49.0529 8.33259 49.5352 8.84452C50.0626 9.40163 50.4996 10.034 50.6955 10.561C50.8764 11.0127 51.0572 11.7957 51.1175 12.2925C51.1778 12.8045 51.1476 13.5874 51.0572 14.0994C50.9668 14.5962 50.7106 15.3792 50.4846 15.8309C50.2585 16.2826 49.7612 16.9602 49.3845 17.3366C49.0077 17.713 48.3296 18.2099 47.8775 18.4357C47.4254 18.6616 46.4761 18.9627 45.7678 19.0982C44.6828 19.309 44.306 19.3241 43.2813 19.1735C42.573 19.0681 41.6839 18.7971 41.1414 18.5411C40.614 18.2852 39.8455 17.7732 39.4235 17.3818C38.9865 16.9602 38.4741 16.2676 38.218 15.7556C37.9768 15.2587 37.7056 14.4156 37.6302 13.8735C37.57 13.3315 37.5549 12.5184 37.6152 12.0667C37.6905 11.615 37.9015 10.8621 38.1125 10.4104C38.3084 9.95873 38.7755 9.25106 39.1372 8.84452C39.5139 8.45304 40.0866 7.95617 40.4181 7.76043C40.7496 7.56469 41.3223 7.30872 41.699 7.17321C42.0758 7.0377 42.784 6.87207 43.2813 6.79679C43.7786 6.73656 44.4869 6.70645 44.8636 6.75162ZM41.9552 10.3803C41.7141 10.6062 41.3826 11.0579 41.2168 11.3891C41.0058 11.8107 40.9154 12.2925 40.9154 12.9701C40.9154 13.6477 41.0058 14.1295 41.2168 14.5511C41.3675 14.8823 41.7442 15.3641 42.0155 15.6201C42.3018 15.861 42.7991 16.1622 43.1306 16.2676C43.4772 16.388 44.1553 16.4482 44.7431 16.4181C45.5568 16.373 45.8582 16.2676 46.3856 15.9062C46.7775 15.6352 47.1843 15.1533 47.4104 14.7016C47.7118 14.1295 47.8022 13.738 47.8022 12.9701C47.8022 12.2022 47.7118 11.8107 47.4104 11.2386C47.1843 10.7869 46.7775 10.305 46.3856 10.034C45.8281 9.64254 45.587 9.58231 44.5924 9.53714C43.7937 9.52208 43.2662 9.58231 42.9046 9.73288C42.6183 9.86839 42.1812 10.1545 41.9552 10.3803ZM69.7283 6.75162C70.1804 6.79679 70.9339 6.91724 71.386 7.05275C71.8381 7.17321 72.5463 7.45929 72.9532 7.67009C73.345 7.89594 73.978 8.39282 74.3396 8.79935C74.7013 9.19083 75.1835 9.8985 75.3945 10.3803C75.6205 10.8471 75.8466 11.615 75.9219 12.0667C75.9822 12.5184 75.9671 13.3315 75.9069 13.8735C75.8315 14.4156 75.5603 15.2587 75.3191 15.7556C75.063 16.2676 74.5506 16.9602 74.1136 17.3818C73.6916 17.7732 72.9231 18.2852 72.4107 18.5411C71.8531 18.7971 70.9641 19.0681 70.2558 19.1735C69.2461 19.3241 68.8543 19.309 67.8447 19.1133C67.1816 18.9929 66.2473 18.6917 65.75 18.4508C65.2678 18.2099 64.5444 17.713 64.1677 17.3366C63.791 16.9602 63.2786 16.2826 63.0525 15.8309C62.8265 15.3792 62.5703 14.5962 62.4799 14.0994C62.3895 13.5874 62.3593 12.8045 62.4196 12.2925C62.4799 11.7957 62.6607 11.0127 62.8416 10.561C63.0375 10.034 63.4745 9.40163 64.0019 8.85958C64.5595 8.2573 65.1773 7.8056 65.8856 7.45929C66.5336 7.1431 67.3172 6.88713 67.92 6.81184C68.4625 6.73656 69.2763 6.7215 69.7283 6.75162ZM66.3829 10.7718C66.1418 11.1181 65.8705 11.7354 65.7801 12.142C65.6596 12.6991 65.6596 13.1056 65.7801 13.7229C65.8705 14.1747 66.1418 14.8221 66.3829 15.1533C66.609 15.4846 67.1062 15.9062 67.4679 16.0869C67.9652 16.3278 68.4173 16.4332 69.1256 16.4332C69.9092 16.4332 70.2709 16.3579 70.9188 16.0266C71.5518 15.6954 71.8381 15.4394 72.1696 14.8522C72.5313 14.2048 72.5916 13.9337 72.5916 12.9701C72.5916 12.0065 72.5313 11.7354 72.1545 11.088C71.8532 10.5459 71.5216 10.2147 70.9942 9.92862C70.3914 9.59736 70.0599 9.52208 69.2009 9.50702C68.4173 9.50702 67.9652 9.59737 67.4679 9.83827C67.0761 10.019 66.624 10.4104 66.3829 10.7718ZM81.4826 6.64622H84.6472V19.1434H81.4826V6.64622ZM78.3481 16.4332C78.8002 16.4332 78.9961 16.5235 79.2975 16.8849C79.5085 17.1409 79.6742 17.5173 79.6742 17.7582C79.6742 17.984 79.5838 18.3002 79.4783 18.4659C79.3578 18.6315 79.0715 18.8573 78.8304 18.9627C78.4988 19.1284 78.2577 19.1284 77.8358 19.0079C77.4439 18.8875 77.1878 18.7068 77.0371 18.3906C76.9165 18.1346 76.8412 17.7431 76.8864 17.4872C76.9316 17.2312 77.1426 16.8999 77.3686 16.7343C77.5947 16.5536 78.0015 16.4332 78.3481 16.4332Z" fill="white"/>
</svg>
