<svg width="101" height="24" viewBox="0 0 101 24" fill="none" xmlns="http://www.w3.org/2000/svg">
<path d="M29.7581 23.5467H2.49115C1.42609 23.5467 0.534668 22.7067 0.534668 21.6145V2.75019C0.534668 1.6854 1.40148 0.793701 2.49115 0.793701H29.7581C30.8232 0.793701 31.7146 1.66052 31.7146 2.75019V21.5896C31.6897 22.7039 30.8229 23.5461 29.7581 23.5461V23.5467Z" fill="#2F1893"/>
<path opacity="0.1" d="M4.42268 23.5465L16.0872 15.0093L16.1616 14.5144L4.15062 5.87109L4.12573 23.1226L4.42268 23.5465Z" fill="#221F1F"/>
<path d="M2.49115 23.5467C1.40148 23.5467 0.534668 22.7067 0.534668 21.6145V2.72274C0.534668 1.63306 1.40148 1.43481 2.49115 1.43481C3.58083 1.43481 4.44764 1.65767 4.44764 2.72274V23.5433L2.49115 23.5467Z" fill="white"/>
<path d="M2.49115 1.73499C3.87806 1.73499 4.15041 2.15921 4.15041 2.72568V23.2742H2.49115C2.05116 23.2739 1.62926 23.0991 1.31813 22.7879C1.00701 22.4768 0.832127 22.0549 0.831902 21.6149V2.72568C0.807015 2.13121 1.10425 1.73499 2.49115 1.73499ZM2.49115 1.46265C1.40148 1.46265 0.534668 1.6855 0.534668 2.72568V21.5897C0.534668 22.704 1.40148 23.5462 2.49115 23.5462H4.44764V2.72568C4.42275 1.6609 3.58083 1.46265 2.49115 1.46265ZM29.7581 1.73499C31.0211 1.73499 31.4173 1.98274 31.4173 2.67619V21.6395C31.4171 22.0795 31.2422 22.5014 30.9311 22.8125C30.62 23.1237 30.1981 23.2985 29.7581 23.2988H28.0988V2.67619C28.074 1.95785 28.4948 1.73499 29.7581 1.73499ZM29.7581 1.46265C28.6684 1.46265 27.8016 1.61112 27.8016 2.67873V23.5739H29.7581C30.8478 23.5739 31.7146 22.7071 31.7146 21.6175V2.6513C31.6897 1.58623 30.8229 1.46265 29.7581 1.46265Z" fill="white"/>
<path d="M29.758 23.5467H27.8015V2.67605C27.8015 1.58638 28.6683 1.45996 29.758 1.45996C30.8477 1.45996 31.7145 1.60844 31.7145 2.67605V21.6394C31.6896 22.7044 30.8228 23.5467 29.758 23.5467Z" fill="white"/>
<path opacity="0.08" d="M21.4118 23.5465L0.708008 3.54243L1.79768 3.98814L16.2109 14.365L31.7146 2.99463V21.6361C31.7146 22.7012 30.8477 23.5677 29.7581 23.5677L21.4118 23.5465Z" fill="#221F1F"/>
<path d="M16.0873 15.0339L1.37663 4.35981C0.509814 3.71585 0.262072 2.4777 0.906032 1.61089C1.54999 0.744073 2.78814 0.546106 3.67956 1.18978L16.1091 10.229L28.6159 1.06591C29.4861 0.422234 30.7021 0.620202 31.343 1.51191C31.987 2.37872 31.7887 3.59226 30.8973 4.23622L16.0873 15.0339Z" fill="white"/>
<path d="M29.7582 0.991814C30.2785 0.991814 30.7983 1.23956 31.1202 1.68527C31.6405 2.42821 31.4918 3.46839 30.7486 4.01337L16.0876 14.6875L1.55002 4.13724C0.807073 3.59226 0.608822 2.52748 1.1258 1.80914C1.42275 1.36343 1.94595 1.0908 2.51271 1.0908C2.88432 1.0908 3.23105 1.18978 3.50339 1.41264L15.9112 10.4275L16.0845 10.5265L16.2579 10.4275L28.7397 1.26444C29.0616 1.09108 29.3837 0.992097 29.7579 0.992097L29.7582 0.991814ZM29.7582 0.694863C29.3622 0.694863 28.938 0.793847 28.619 1.06648L16.1091 10.229L3.65498 1.16489C3.33314 0.917435 2.91203 0.793564 2.49121 0.793564C1.86903 0.818451 1.25307 1.09052 0.881452 1.61372C0.259268 2.48053 0.509838 3.69407 1.37637 4.33803L16.0871 15.0368L30.9001 4.23905C31.3169 3.93419 31.5972 3.47774 31.6806 2.96812C31.764 2.4585 31.6438 1.93653 31.3459 1.51473C30.9499 0.99436 30.3552 0.69458 29.761 0.69458L29.7582 0.694863Z" fill="white"/>
<path d="M59.1811 12.8077C59.1811 15.1465 58.4871 17.0103 57.0996 18.3983C55.5399 20.0516 53.4892 20.878 50.9476 20.878C48.5149 20.878 46.4566 20.0358 44.7724 18.3516C43.0883 16.6675 42.2461 14.5936 42.2461 12.1298C42.2461 9.66593 43.0883 7.59208 44.7724 5.90794C46.4566 4.2238 48.5149 3.38159 50.9476 3.38159C52.1793 3.38159 53.3413 3.59992 54.433 4.0363C55.5246 4.47268 56.4211 5.08892 57.1197 5.88419L55.5761 7.42833C55.0614 6.80474 54.3948 6.31689 53.5761 5.9662C52.7573 5.61552 51.8803 5.44017 50.9445 5.44017C49.1204 5.44017 47.5791 6.07141 46.3132 7.33501C45.0654 8.61331 44.4418 10.212 44.4418 12.1301C44.4418 14.0481 45.0654 15.6471 46.3132 16.9254C47.5762 18.1884 49.1201 18.8202 50.9445 18.8202C52.6131 18.8202 54.0008 18.3525 55.1083 17.4167C56.2158 16.4808 56.8547 15.1946 57.0264 13.5574H50.9445V11.5458H59.0612C59.1373 11.9625 59.1765 12.3852 59.1783 12.8088L59.1811 12.8077ZM63.576 20.5007H61.4266V9.04205H63.4849V10.6326H63.5782C63.9057 10.0712 64.4086 9.60315 65.087 9.22899C65.7655 8.85483 66.4394 8.6679 67.1103 8.6679C67.9525 8.6679 68.6929 8.86586 69.3323 9.25246C69.9592 9.62825 70.4506 10.1934 70.7356 10.8665C71.6867 9.40066 73.0046 8.6679 74.6893 8.6679C76.0146 8.6679 77.0361 9.07345 77.7536 9.88398C78.4711 10.6945 78.8297 11.8487 78.8297 13.3456V20.5007H76.6803V13.6736C76.6803 12.5976 76.4823 11.8221 76.0955 11.3461C75.7086 10.8701 75.0508 10.6329 74.1308 10.6329C73.3041 10.6329 72.6104 10.9836 72.0493 11.6855C71.4882 12.3874 71.2071 13.2138 71.2071 14.1652V20.5007H69.0577V13.6736C69.0577 12.5976 68.8597 11.8221 68.4731 11.3461C68.0865 10.8701 67.4284 10.6329 66.5084 10.6329C65.6815 10.6329 64.9878 10.9836 64.427 11.6855C63.8661 12.3874 63.5847 13.2138 63.5847 14.1652V20.5007H63.576ZM85.5866 8.6679C87.1771 8.6679 88.4325 9.09296 89.3525 9.94252C90.2725 10.7921 90.7326 11.9584 90.7326 13.4395V20.5007H88.6743V18.9102H88.581C87.6921 20.2202 86.5069 20.8749 85.0255 20.8749C83.7625 20.8749 82.7059 20.5007 81.856 19.7521C81.0062 19.0035 80.5811 18.068 80.5811 16.9449C80.5811 15.7571 81.0294 14.8165 81.9262 14.1146C82.823 13.4126 84.0198 13.0619 85.5167 13.0619C86.7951 13.0619 87.8477 13.2958 88.6746 13.7633V13.2721C88.6746 12.5237 88.3782 11.8883 87.7854 11.3659C87.1927 10.8436 86.4987 10.5825 85.704 10.5825C84.5029 10.5825 83.5546 11.0896 82.8476 12.1032L80.9527 10.9097C81.9972 9.41282 83.541 8.66422 85.584 8.66422L85.5866 8.6679ZM82.8029 16.995C82.8029 17.5561 83.0404 18.0244 83.5164 18.3983C83.9924 18.7722 84.5487 18.9597 85.1887 18.9597C86.0928 18.9597 86.8997 18.6245 87.6095 17.9537C88.3194 17.2829 88.674 16.4958 88.674 15.5911C88.0032 15.0611 87.0677 14.7958 85.8669 14.7958C84.9935 14.7958 84.2647 15.0063 83.6799 15.4271C83.095 15.8479 82.8026 16.3708 82.8026 16.9944L82.8029 16.995ZM95.9494 5.08864C95.9527 5.28887 95.915 5.48767 95.8386 5.67275C95.7621 5.85784 95.6485 6.02528 95.5048 6.16473C95.2084 6.46112 94.8501 6.60875 94.4287 6.60875C94.0073 6.60875 93.6487 6.46084 93.3526 6.16473C93.0565 5.86863 92.9086 5.51003 92.9086 5.08864C92.9052 4.88843 92.9428 4.68964 93.0192 4.50456C93.0957 4.31948 93.2092 4.15202 93.3529 4.01254C93.4923 3.86887 93.6598 3.75533 93.8449 3.67891C94.03 3.60249 94.2288 3.56483 94.429 3.56825C94.6292 3.56483 94.828 3.60249 95.013 3.67891C95.1981 3.75533 95.3656 3.86887 95.5051 4.01254C95.8012 4.30949 95.9496 4.66753 95.9496 5.08864H95.9494ZM95.5048 9.04234V20.5007H93.3554V9.04205L95.5048 9.04234ZM100.463 3.7583V20.5007H98.3137V3.7583H100.463Z" fill="white"/>
</svg>
