<svg width="101" height="30" viewBox="0 0 101 30" fill="none" xmlns="http://www.w3.org/2000/svg">
<path d="M0.534668 6.22632H4.01908V13.9677H11.3679V6.22632H14.8568V25.229H11.3679V17.325H4.01908V25.229H0.534668V6.22632Z" fill="white"/>
<path d="M25.8954 19.0395C25.8954 20.6302 24.5993 21.9247 23.009 21.9247C21.4181 21.9247 20.1228 20.6302 20.1228 19.0395V10.8582H16.8184V19.0395C16.8184 22.4526 19.5956 25.2289 23.009 25.2289C26.4216 25.2289 29.1986 22.4526 29.1986 19.0395V10.8582H25.8954V19.0395Z" fill="white"/>
<path d="M38.4234 10.9541C36.7843 10.9541 35.6401 11.4297 34.5352 12.5143V6.22632H31.22V17.8797C31.22 22.2417 34.3737 25.229 37.9169 25.229C41.8559 25.229 45.3071 22.1884 45.3071 18.0917C45.3071 14.0469 42.1247 10.9541 38.4234 10.9541ZM38.5058 22.1621C36.2594 22.1621 34.5416 20.286 34.5416 18.0917C34.5416 15.8971 36.2594 14.0204 38.5058 14.0204C40.4092 14.0204 42.128 15.8971 42.128 18.0917C42.128 20.286 40.4092 22.1621 38.5058 22.1621Z" fill="white"/>
<path d="M50.8752 11.7891C50.8752 10.1226 51.9856 9.59426 53.2012 9.59426C54.1799 9.59426 55.4749 10.3344 56.32 11.2334L58.4872 8.69583C57.4041 7.24211 55.2104 6.2373 53.4128 6.2373C49.8173 6.2373 47.2266 8.32577 47.2266 11.7891C47.2266 18.2126 55.131 16.1764 55.131 19.7725C55.131 20.8815 54.0475 21.8606 52.8058 21.8606C50.8489 21.8606 50.2141 20.9088 49.3157 19.904L46.9097 22.3885C48.4438 24.2656 50.3465 25.2177 52.6201 25.2177C56.03 25.2177 58.7794 23.1029 58.7794 19.7981C58.7794 12.661 50.8752 14.8818 50.8752 11.7891Z" fill="white"/>
<path d="M67.5068 10.7678C63.964 10.7678 60.8098 13.7533 60.8098 18.1163V29.7998H64.1248V23.4819C65.2299 24.5657 66.3735 25.0422 68.0133 25.0422C71.7143 25.0422 74.8972 21.9497 74.8972 17.9049C74.8972 13.8076 71.445 10.7678 67.5068 10.7678ZM68.0958 21.9762C65.8496 21.9762 64.1316 20.0976 64.1316 17.9049C64.1316 15.7103 65.8496 13.8336 68.0958 13.8336C69.9989 13.8336 71.7178 15.7103 71.7178 17.9049C71.7178 20.0976 69.9989 21.9762 68.0958 21.9762Z" fill="white"/>
<path d="M99.2992 22.162C97.3439 22.162 96.7888 21.3164 96.7888 20.0206V14.2846H99.8282V11.3771H96.7888V7.5437L93.4326 9.05013V20.7344C93.4326 23.7219 95.4938 25.2289 98.321 25.2289C98.7439 25.2289 99.3262 25.2016 99.6437 25.1233L100.463 22.11C100.093 22.1356 99.6705 22.162 99.2992 22.162Z" fill="white"/>
<path d="M90.5566 14.4537C89.9211 13.3603 89.0272 12.4837 87.9096 11.8238C87.0744 11.3376 86.2083 11.029 85.2324 10.8965V7.4222C86.2083 7.00782 86.814 6.09066 86.814 5.02066C86.814 3.56225 85.6445 2.38042 84.1872 2.38042C82.7288 2.38042 81.5388 3.56225 81.5388 5.02066C81.5388 6.09066 82.1095 7.00782 83.0854 7.4222V10.898C82.3047 11.0108 81.4951 11.2542 80.7557 11.6282C79.2456 10.4813 74.2938 6.71876 71.397 4.52119C71.4657 4.2735 71.5186 4.0182 71.5186 3.74885C71.5186 2.13351 70.2105 0.824219 68.5946 0.824219C66.9787 0.824219 65.6711 2.13351 65.6711 3.74885C65.6711 5.36399 66.98 6.67367 68.596 6.67367C69.1472 6.67367 69.657 6.51245 70.0969 6.24739L70.7082 6.71114L79.1082 12.7634C78.6641 13.1711 78.2505 13.6349 77.9197 14.1552C77.2492 15.2161 76.8395 16.3833 76.8395 17.6564V17.9221C76.8395 18.8158 77.0093 19.6596 77.2986 20.4523C77.5533 21.1444 77.9257 21.7736 78.387 22.3426L75.5991 25.1372C75.3518 25.0461 75.0921 24.9961 74.8209 24.9961C74.2174 24.9961 73.6514 25.2319 73.2245 25.658C72.7973 26.0852 72.5633 26.6526 72.5633 27.2565C72.5635 27.8602 72.7987 28.4276 73.2257 28.8545C73.6526 29.2816 74.22 29.517 74.8239 29.517C75.4278 29.517 75.9954 29.2816 76.4226 28.8545C76.8489 28.4276 77.0843 27.86 77.0843 27.2565C77.0843 27.0229 77.0482 26.7949 76.9803 26.5783L79.8618 23.6964C80.2568 23.9693 80.6835 24.199 81.1422 24.3971C82.0468 24.7882 83.0454 25.0266 84.1382 25.0266H84.3385C85.5467 25.0266 86.6863 24.7428 87.7577 24.1623C88.8866 23.5488 89.7702 22.7099 90.4378 21.639C91.1088 20.5651 91.4783 19.3785 91.4783 18.0732V18.008C91.4783 16.7239 91.181 15.5391 90.5566 14.4537ZM87.0359 20.4991C86.2538 21.3682 85.3548 21.9036 84.3385 21.9036H84.171C83.5905 21.9036 83.0228 21.7432 82.4669 21.4514C81.8403 21.1301 81.3641 20.6718 80.9743 20.0916C80.5714 19.522 80.3528 18.9002 80.3528 18.2408V18.0406C80.3528 17.3924 80.4772 16.7777 80.7906 16.1973C81.1258 15.5627 81.5784 15.0693 82.1803 14.677C82.7714 14.2874 83.4026 14.0963 84.1056 14.0963H84.171C84.8085 14.0963 85.412 14.222 85.9815 14.5134C86.5618 14.8241 87.0359 15.2487 87.4034 15.8071C87.7604 16.3657 87.9728 16.9682 88.0411 17.6246C88.0518 17.7611 88.0573 17.9008 88.0573 18.0343C88.0573 18.9251 87.7169 19.7502 87.0359 20.4991Z" fill="white"/>
</svg>
