<svg width="100" height="21" viewBox="0 0 100 21" fill="none" xmlns="http://www.w3.org/2000/svg">
<path d="M34.0037 18.0675C31.8682 18.0675 30.1582 17.3639 28.873 15.9565C27.5879 14.5492 26.9457 12.7186 26.9457 10.464C26.9457 8.04193 27.6001 6.10917 28.9099 4.66652C30.2189 3.22464 32.0011 2.50332 34.2557 2.50332C36.3352 2.50332 38.0106 3.2039 39.2812 4.60353C40.5517 6.00393 41.187 7.83529 41.187 10.0961C41.187 12.5535 40.5356 14.4962 39.2335 15.9243C37.9315 17.3523 36.1877 18.0675 34.0037 18.0675ZM34.1297 4.0996C32.5473 4.0996 31.2629 4.67037 30.275 5.81189C29.2879 6.95341 28.7939 8.45214 28.7939 10.3073C28.7939 12.1632 29.2748 13.6558 30.2381 14.7874C31.2006 15.9181 32.4558 16.4827 34.003 16.4827C35.6553 16.4827 36.9574 15.9442 37.91 14.8657C38.8617 13.7887 39.338 12.2792 39.338 10.3396C39.338 8.35151 38.8756 6.81437 37.9514 5.72892C37.0281 4.64194 35.7537 4.0996 34.1297 4.0996Z" fill="white"/>
<path d="M52.0761 17.8155H50.3538V16.114H50.3115C49.5971 17.4161 48.4909 18.0675 46.993 18.0675C44.4303 18.0675 43.149 16.5419 43.149 13.4884V7.06096H44.8613V13.2149C44.8613 15.4833 45.7293 16.6179 47.4662 16.6179C48.3066 16.6179 48.9979 16.3091 49.5403 15.6892C50.0826 15.0693 50.3545 14.2596 50.3545 13.2571V7.06096H52.0768L52.0761 17.8155Z" fill="white"/>
<path d="M60.0037 17.7103C59.5974 17.9354 59.0619 18.0468 58.3967 18.0468C56.5131 18.0468 55.5713 16.9967 55.5713 14.8957V8.53126H53.723V7.06096H55.5713V4.4353L57.2936 3.87837V7.06096H60.003V8.53126H57.2936V14.5907C57.2936 15.312 57.4157 15.8267 57.6615 16.1348C57.9066 16.4436 58.3129 16.5972 58.8799 16.5972C59.3139 16.5972 59.6888 16.4789 60.0037 16.24V17.7103Z" fill="white"/>
<path d="M6.05256 8.03655C5.61777 8.03655 5.27132 8.24089 5.01551 8.64879C4.75971 9.0567 4.63142 9.59673 4.63142 10.2689C4.63142 10.951 4.75971 11.4903 5.01551 11.8867C5.27132 12.2838 5.60702 12.4813 6.02184 12.4813C6.44972 12.4813 6.78925 12.2885 7.03968 11.9028C7.29011 11.5172 7.41609 10.9818 7.41609 10.2973C7.41609 9.58368 7.29472 9.02828 7.0512 8.63113C6.80769 8.23474 6.47507 8.03655 6.05256 8.03655Z" fill="white"/>
<path d="M-0.000732422 2.35582V18.0076L11.9061 20.5042V0.0512695L-0.000732422 2.35582ZM7.96688 12.8277C7.46372 13.4899 6.80769 13.8218 5.99802 13.8218C5.2091 13.8218 4.56689 13.5006 4.06988 12.8592C3.57363 12.217 3.32474 11.3812 3.32474 10.3503C3.32474 9.26181 3.5767 8.38147 4.0814 7.7093C4.5861 7.03714 5.25442 6.70068 6.08636 6.70068C6.87222 6.70068 7.50828 7.02178 7.993 7.66552C8.47849 8.30926 8.72124 9.15733 8.72124 10.2105C8.722 11.2929 8.47004 12.1655 7.96688 12.8277Z" fill="white"/>
<path d="M12.659 4.38767V8.38838L14.0571 9.26872C14.0939 9.27947 14.1738 9.28024 14.2107 9.26872L20.2279 5.21194C20.2279 4.73182 19.78 4.38767 19.5273 4.38767H12.659Z" fill="white"/>
<path d="M12.659 9.88096L13.9349 10.7575C14.1147 10.8896 14.3313 10.7575 14.3313 10.7575C14.1154 10.8896 20.2286 6.82896 20.2286 6.82896V14.182C20.2286 14.9825 19.7163 15.3182 19.1401 15.3182H12.6582L12.659 9.88096Z" fill="white"/>
<path d="M63.9929 17.8155H62.2706V1.89338H63.9929V17.8155Z" fill="white"/>
<path d="M71.4366 18.0675C69.8472 18.0675 68.5782 17.5651 67.6295 16.5603C66.6808 15.5555 66.206 14.2235 66.206 12.5642C66.206 10.7575 66.7 9.34707 67.6871 8.33153C68.6742 7.31676 70.0078 6.80899 71.6878 6.80899C73.2918 6.80899 74.5432 7.30293 75.4435 8.29005C76.3422 9.27717 76.7924 10.6461 76.7924 12.3968C76.7924 14.1121 76.3077 15.4856 75.3382 16.5188C74.368 17.5513 73.0682 18.0675 71.4366 18.0675ZM71.5626 8.25779C70.4564 8.25779 69.5815 8.6342 68.9377 9.38702C68.2932 10.1398 67.9713 11.1777 67.9713 12.5012C67.9713 13.7757 68.2971 14.7804 68.9477 15.5156C69.5984 16.2508 70.4702 16.6187 71.5626 16.6187C72.6757 16.6187 73.5322 16.2584 74.1314 15.5371C74.7298 14.8166 75.0286 13.791 75.0286 12.4598C75.0286 11.1154 74.7298 10.0792 74.1314 9.35092C73.5322 8.62191 72.6757 8.25779 71.5626 8.25779Z" fill="white"/>
<path d="M83.5025 18.0675C81.9131 18.0675 80.6441 17.5651 79.6954 16.5603C78.7467 15.5555 78.2719 14.2235 78.2719 12.5642C78.2719 10.7575 78.7659 9.34707 79.753 8.33153C80.7401 7.31676 82.0737 6.80899 83.7545 6.80899C85.3577 6.80899 86.6098 7.30293 87.5093 8.29005C88.4089 9.27717 88.859 10.6461 88.859 12.3968C88.859 14.1121 88.3743 15.4856 87.4041 16.5188C86.4339 17.5521 85.1334 18.0675 83.5025 18.0675ZM83.6285 8.25779C82.5223 8.25779 81.6466 8.6342 81.0028 9.38702C80.3583 10.1398 80.0364 11.1777 80.0364 12.5012C80.0364 13.7757 80.3622 14.7804 81.0128 15.5156C81.6635 16.2508 82.5353 16.6187 83.6277 16.6187C84.7408 16.6187 85.5966 16.2584 86.1958 15.5371C86.7942 14.8166 87.0938 13.791 87.0938 12.4598C87.0938 11.1154 86.7942 10.0792 86.1958 9.35092C85.5973 8.62191 84.7416 8.25779 83.6285 8.25779Z" fill="white"/>
<path d="M99.9993 17.8155H97.5833L92.8359 12.648H92.7937V17.8155H91.0714V1.89338H92.7937V11.9866H92.8359L97.3521 7.06096H99.6098L94.6212 12.2493L99.9993 17.8155Z" fill="white"/>
</svg>
