<svg width="100" height="23" viewBox="0 0 100 23" fill="none" xmlns="http://www.w3.org/2000/svg">
<path fill-rule="evenodd" clip-rule="evenodd" d="M30.8708 0.205076L30.9731 9.79115C31.0414 17.0191 31.1096 19.4968 31.2631 19.7702C31.3825 19.9924 31.6554 20.2829 31.86 20.4196C32.0818 20.5563 32.4741 20.6759 32.764 20.6759C33.054 20.6759 33.6339 20.4537 34.0773 20.1632C34.5379 19.8898 34.896 19.5481 34.896 19.4285C34.896 19.326 34.7425 18.8817 34.5379 18.4545C34.3332 18.0273 34.0603 17.19 33.9409 16.5749C33.8044 15.9597 33.7021 15.0199 33.7021 14.4731C33.7021 13.9434 33.8215 12.9011 33.9579 12.1663C34.1115 11.4486 34.4526 10.3892 34.7255 9.82532C34.9984 9.26144 35.5442 8.45832 35.9535 8.04823C36.3629 7.63813 37.0622 7.1255 37.5397 6.90336C38.0002 6.68123 38.8189 6.45909 39.3306 6.39074C39.8423 6.33948 40.6951 6.37365 41.2068 6.47618C41.7185 6.5787 42.5201 6.90336 42.9977 7.21094C43.6629 7.65521 43.9699 8.01405 44.4474 8.95386C45.0103 10.0816 45.0444 10.2183 45.1297 14.1826H36.8575L36.9769 15.0712C37.0451 15.5667 37.2157 16.3869 37.3692 16.8654C37.5568 17.5318 37.8638 18.0273 38.5119 18.6937C39.2453 19.4456 39.6035 19.6848 40.4393 19.9069C41.1044 20.112 41.7867 20.1803 42.4007 20.1291C42.9124 20.0778 43.6799 19.8557 44.1063 19.6506C44.5327 19.4285 45.1126 19.0867 45.3855 18.8646C45.6584 18.6595 46.2554 18.0102 46.6988 17.4463C47.1594 16.8654 47.5687 16.404 47.6369 16.404C47.7222 16.404 47.9098 16.8141 48.0804 17.2925C48.2509 17.7881 48.6603 18.5741 48.9673 19.0526C49.2743 19.5139 49.8372 20.112 50.1953 20.3683C50.5535 20.6246 51.0481 20.9151 51.304 21.0005C51.5769 21.1031 52.0886 21.1885 52.4638 21.1885C52.839 21.1885 53.4019 21.0689 53.6918 20.9322C53.9989 20.7955 54.3911 20.4537 54.5446 20.1632C54.7152 19.8898 54.8517 19.4285 54.8517 19.138C54.8517 18.8475 54.7493 18.4203 54.6129 18.1469C54.4764 17.8906 54.1865 17.5147 53.9647 17.3096C53.7601 17.1046 52.4979 16.3186 51.1846 15.5667C49.5813 14.6269 48.558 13.9092 48.0633 13.3624C47.6369 12.9011 47.2446 12.2688 47.1423 11.8758C47.057 11.4999 47.0229 10.8677 47.0741 10.4576C47.1252 10.0645 47.3129 9.4494 47.5005 9.09056C47.671 8.74881 48.1657 8.15075 48.575 7.77483C49.0014 7.3989 49.7178 6.95463 50.1783 6.78375C50.6388 6.59579 51.6622 6.42492 52.4638 6.37365C53.2654 6.32239 54.3741 6.37365 54.9369 6.47618C55.4998 6.5787 56.0115 6.73249 56.0797 6.80084C56.1309 6.86919 55.9944 7.91153 55.7727 9.14182C55.551 10.3721 55.3633 11.3803 55.3633 11.3974C55.3633 11.4315 55.2951 11.4486 55.1928 11.4486C55.0904 11.4486 55.0222 11.2778 55.0222 11.0556C55.0222 10.8506 54.8005 10.2012 54.5105 9.60318C54.1694 8.88551 53.7942 8.40706 53.3507 8.11658C53.0096 7.87735 52.3785 7.62104 51.9521 7.56978C51.4575 7.50143 50.9799 7.55269 50.6047 7.70648C50.2806 7.84318 49.8713 8.13366 49.7007 8.37289C49.5302 8.61211 49.3767 9.02221 49.3767 9.3127C49.3767 9.60319 49.5643 10.0987 49.7689 10.4234C49.9907 10.748 50.6217 11.3119 51.1846 11.6708C51.7474 12.0467 52.9755 12.8156 53.9136 13.3795C55.0904 14.1143 55.7727 14.6611 56.1309 15.1737C56.5743 15.823 56.6425 16.0964 56.6937 17.2242C56.7449 18.1982 56.6767 18.745 56.4549 19.3089C56.2844 19.7361 55.875 20.3854 55.5339 20.7613C55.1757 21.1372 54.4935 21.6328 53.9818 21.872C53.2143 22.2308 52.8049 22.2992 51.5257 22.2992C50.1101 22.2992 49.8883 22.2479 48.7967 21.7011C48.0974 21.3594 47.1935 20.71 45.6925 19.2234L44.6862 20.2999C44.1063 20.9322 43.3217 21.5644 42.8271 21.8036C42.3325 22.06 41.5138 22.265 40.8657 22.3334C40.064 22.4017 39.45 22.3334 38.6484 22.1112C37.9491 21.9233 37.1645 21.5302 36.5505 21.0689C36.0217 20.6588 35.5783 20.2658 35.5783 20.1632C35.5783 20.0607 35.4589 19.9924 35.3224 19.9924C35.186 19.9924 35.0666 20.0436 35.0666 20.112C35.0836 20.1974 34.7766 20.5733 34.3843 20.9664C34.0091 21.3765 33.378 21.8549 32.9687 22.0429C32.5764 22.2308 31.9624 22.3846 31.6042 22.3846C31.2631 22.3846 30.6491 22.2479 30.2568 22.077C29.8645 21.9233 29.2675 21.4448 28.2783 20.2487L27.7836 20.8126C27.5278 21.1372 26.8456 21.6157 26.2827 21.8891C25.6346 22.2137 24.9864 22.3846 24.5259 22.3846C24.1336 22.3846 23.5537 22.2821 23.2467 22.1454C22.9568 22.0258 22.4451 21.6669 22.1381 21.3423C21.8311 21.0176 21.5411 20.5904 21.507 20.3683C21.4558 20.1632 21.3876 19.9924 21.3364 19.9924C21.2853 19.9924 20.9612 20.2999 20.603 20.693C20.2619 21.0689 19.5797 21.5815 19.1191 21.8036C18.6416 22.0258 17.8399 22.265 17.3283 22.3334C16.7483 22.3846 16.1343 22.3504 15.7079 22.2137C15.3327 22.0941 14.821 21.8549 14.5481 21.684C14.2923 21.4961 13.9682 21.1031 13.7976 20.7955C13.6441 20.505 13.4565 19.9753 13.3883 19.6506C13.303 19.3089 13.3201 18.7108 13.4224 18.2836C13.5247 17.8564 13.7976 17.2413 14.0535 16.9166C14.3093 16.592 14.8551 16.1135 15.2815 15.8572C15.7079 15.5838 16.8166 15.0712 17.7547 14.6953C18.6927 14.3022 19.8355 13.7896 21.1659 13.0719V10.936C21.1659 9.09056 21.1147 8.71464 20.8248 8.20201C20.5689 7.75774 20.279 7.55269 19.7502 7.38181C19.1362 7.21094 18.9486 7.21094 18.3857 7.46725C17.9252 7.68939 17.6523 7.99696 17.3283 8.6292C17.0554 9.21017 16.8848 9.89367 16.8166 10.8164C16.7654 11.5341 16.7142 12.1321 16.6801 12.1321C16.6631 12.1321 16.032 11.91 13.917 11.1069L14.0194 10.4576C14.0705 10.1158 14.2752 9.4494 14.4799 8.98804C14.6846 8.52667 15.128 7.91153 15.4521 7.63813C15.7762 7.34764 16.3902 6.97171 16.8166 6.78375C17.243 6.59579 18.1469 6.40783 18.8633 6.35656C19.5626 6.3053 20.5177 6.35657 20.9953 6.47618C21.4558 6.5787 22.1722 6.88628 22.5645 7.17676C23.0762 7.51851 23.4514 7.99696 24.236 9.65445L24.3213 14.5586C24.4065 19.1893 24.4236 19.4797 24.7647 19.9411C24.9523 20.1974 25.3276 20.5221 25.5663 20.6246C25.8222 20.7442 26.2486 20.8126 26.5385 20.7613C26.8114 20.71 27.2549 20.4708 27.9542 19.7361L27.9201 12.4739C27.903 8.47541 27.8178 4.66491 27.7325 4.01558C27.6472 3.36626 27.4937 2.61441 27.4084 2.34101C27.3061 2.0847 27.2208 1.82839 27.2208 1.74295C27.2208 1.6746 27.579 1.52081 28.0224 1.4012C28.4829 1.28159 29.3016 0.956924 29.8645 0.683525L30.8708 0.205076ZM37.5397 9.39814C37.3862 9.92785 37.1986 11.0214 37.1304 11.8416L37.011 13.3453C40.5928 13.3453 41.3773 13.277 41.5991 13.1232C41.889 12.9352 41.9061 12.7302 41.8379 11.2778C41.7867 10.2525 41.6332 9.38105 41.4285 8.9026C41.2579 8.4925 40.9168 8.01405 40.678 7.82609C40.4222 7.63813 39.9787 7.51851 39.5182 7.51851C38.9554 7.51851 38.6654 7.63813 38.3073 7.99696C38.0514 8.25327 37.6932 8.88551 37.5397 9.39814ZM17.4476 15.8059C17.2259 15.9255 16.9701 16.2331 16.8507 16.4894C16.7313 16.7287 16.629 17.2755 16.629 17.6856C16.629 18.1127 16.7654 18.745 16.936 19.0867C17.0895 19.4285 17.4476 19.8044 17.7035 19.9411C17.9593 20.0607 18.454 20.1632 18.8121 20.1803C19.1533 20.1803 19.8526 19.9753 20.3472 19.7531L21.2341 19.3089C21.2341 15.7547 21.1829 15.3617 20.9783 15.2933C20.8418 15.2591 20.3984 15.225 20.0061 15.225C19.5967 15.2421 18.9486 15.3275 18.5563 15.3958C18.1469 15.4813 17.6523 15.6692 17.4476 15.8059ZM62.2369 0.205076L62.3393 9.80823C62.4246 18.9842 62.4587 19.4456 62.7998 20.4196C62.9874 20.9834 63.2091 21.5815 63.2603 21.7524C63.3626 22.0258 63.175 22.0429 58.5869 22.0429L58.6893 21.6669C58.7404 21.4619 58.894 20.7442 59.0304 20.0778C59.2521 19.0867 59.2862 17.6172 59.2351 11.1069C59.1839 3.94723 59.1498 3.26373 58.8428 2.4948C58.6722 2.03344 58.5528 1.64042 58.604 1.62334C58.6381 1.62334 59.0986 1.48664 59.6103 1.31576C60.139 1.16197 60.9407 0.8544 61.4012 0.615175L62.2369 0.205076ZM84.4269 0.187988C84.9898 0.187988 85.7061 0.273426 86.0131 0.393038C86.3201 0.51265 86.5419 0.683525 86.5078 0.78605C86.4566 0.871487 86.2519 1.93091 86.0302 3.12703C85.7914 4.32316 85.5526 5.31423 85.4844 5.31423C85.4162 5.31423 85.3138 5.17753 85.2627 5.00666C85.2115 4.83578 84.9557 4.22063 84.6998 3.60548C84.444 2.99033 84.0176 2.30683 83.6935 2.03344C83.3865 1.76004 82.943 1.55499 82.7043 1.55499C82.4484 1.55499 82.1073 1.70877 81.9197 1.93091C81.6809 2.2214 81.5956 2.56315 81.5956 3.34917C81.5956 3.91306 81.7321 4.86996 82.2096 6.59579H87.6335L87.5823 3.94723L89.0662 3.21247C89.8849 2.81946 90.6183 2.46062 90.6865 2.44353C90.7547 2.42645 90.823 3.36626 90.823 6.68123H92.955C94.9676 6.68123 95.087 6.69832 95.087 7.02298C95.087 7.33055 94.9676 7.36473 90.823 7.36473V18.8133L91.2494 19.326C91.5734 19.719 91.8122 19.8386 92.3068 19.8386C92.665 19.8386 93.2449 19.6848 93.586 19.4968C94.1148 19.2063 94.2342 19.1893 94.2342 19.4114C94.2342 19.5481 94.1318 19.9069 93.9954 20.2145C93.876 20.5221 93.5349 21.0005 93.279 21.2568C93.0061 21.5302 92.4774 21.9062 92.1022 22.077C91.7269 22.2479 91.0959 22.3846 90.6865 22.3846C90.2942 22.3846 89.6802 22.265 89.3391 22.0941C88.9468 21.9062 88.5545 21.5132 87.8381 20.2658L87.7529 7.36473H82.2949L82.3461 13.6358C82.3972 18.8304 82.4655 20.0778 82.6872 20.8638C82.8407 21.3765 82.9771 21.8549 82.9771 21.9233C82.9771 21.9916 81.9879 22.06 78.6278 22.06L78.9178 20.898C79.1566 19.924 79.2078 18.7792 79.2248 7.19385L78.372 7.22803C77.5874 7.2622 77.5192 7.24511 77.5192 6.88628C77.5192 6.54453 77.6045 6.49327 78.3891 6.45909C79.2419 6.42492 79.276 6.39074 79.3271 5.91229C79.3613 5.6218 79.4295 5.09209 79.4807 4.71617C79.5318 4.34024 79.7877 3.57131 80.0435 3.00742C80.3505 2.3581 80.811 1.72586 81.2715 1.33285C81.6979 0.974012 82.3461 0.581 82.7213 0.4443C83.0965 0.307601 83.8641 0.205076 84.4269 0.187988V0.187988ZM8.01563 1.72586C8.7661 1.72586 9.90886 1.84547 10.574 1.98217C11.2222 2.11887 11.768 2.25557 11.785 2.27266C11.8021 2.30683 11.6827 3.77636 11.4951 5.57054C11.3245 7.34764 11.171 8.93677 11.171 9.10765C11.171 9.27852 11.0516 9.41522 10.9152 9.41522C10.7446 9.41522 10.6593 9.24435 10.6593 8.93677C10.6423 8.68046 10.4888 7.86026 10.3011 7.10841C10.1135 6.35657 9.75535 5.3484 9.49951 4.88704C9.22661 4.42568 8.74904 3.86179 8.35675 3.60548C7.81096 3.24665 7.48689 3.1783 6.56586 3.1783C5.76423 3.1783 5.25254 3.26373 4.77497 3.52005C4.39974 3.72509 3.90511 4.15228 3.70044 4.45986C3.46165 4.81869 3.30815 5.29714 3.30815 5.69015C3.32521 6.04899 3.46165 6.61288 3.64927 6.97171C3.81983 7.33055 4.2974 7.92861 4.70675 8.30454C5.1161 8.68046 6.32708 9.56901 7.41867 10.2867C8.4932 11.0044 9.82358 11.9954 10.3694 12.5081C11.0004 13.0719 11.5633 13.8067 11.8874 14.456C12.3479 15.3788 12.382 15.6009 12.3138 16.7628C12.2626 17.6685 12.1261 18.2836 11.8191 18.8988C11.5804 19.3601 10.9322 20.1462 10.3694 20.6588C9.77241 21.2056 9.00488 21.7011 8.44203 21.9233C7.74273 22.1796 7.11166 22.2821 5.9689 22.2821C5.03081 22.2821 3.99039 22.1625 3.32521 21.9745C2.71119 21.8036 1.70488 21.4448 -0.000732422 20.6759L0.545062 17.8223C0.852072 16.2502 1.14203 14.7807 1.19319 14.5756C1.22731 14.3706 1.3467 14.1997 1.44904 14.1997C1.53432 14.1997 1.70488 14.832 1.80721 15.6009C1.90955 16.3698 2.14833 17.4292 2.35301 17.959C2.54063 18.4716 2.98408 19.1893 3.30815 19.5481C3.64927 19.924 4.22918 20.3683 4.60441 20.5563C4.97965 20.7442 5.696 20.9322 6.22474 20.9834C6.73642 21.0347 7.41867 20.9834 7.75979 20.8809C8.08385 20.7784 8.64671 20.3854 8.98783 20.0095C9.58479 19.3772 9.63596 19.2405 9.63596 18.3349C9.63596 17.5659 9.51657 17.1558 9.14133 16.5065C8.86843 16.0281 8.3397 15.3788 7.96446 15.0541C7.58923 14.7123 6.32708 13.858 5.16726 13.1403C4.00745 12.4055 2.72824 11.4828 2.3189 11.0898C1.90955 10.6797 1.38081 9.96202 1.15908 9.50066C0.90324 8.91969 0.766792 8.32162 0.766792 7.70648C0.749736 7.17676 0.886184 6.33948 1.05675 5.82685C1.26142 5.19462 1.63665 4.59656 2.21656 3.98141C2.67707 3.46878 3.4446 2.87072 3.92217 2.64858C4.38268 2.42645 5.18432 2.11887 5.71306 1.98217C6.22474 1.84547 7.26516 1.74295 8.01563 1.72586ZM70.9014 6.33948C71.4813 6.33948 72.2489 6.45909 72.7776 6.66414C73.2722 6.8521 74.0568 7.33055 74.5003 7.74065C75.0461 8.2191 75.5407 8.88551 75.9159 9.67153C76.3082 10.4576 76.5982 11.4145 76.7858 12.491C77.0075 13.8067 77.0246 14.3877 76.8711 15.6522C76.7687 16.4894 76.53 17.6001 76.3423 18.1298C76.1547 18.6425 75.7454 19.4456 75.4213 19.924C75.1143 20.3854 74.4662 21.0176 74.0056 21.3423C73.5451 21.6499 72.7435 22.0258 72.2318 22.1625C71.6178 22.3504 70.9185 22.4017 70.2704 22.3504C69.7075 22.2992 68.8206 22.0941 68.326 21.8549C67.7802 21.6157 67.0979 21.1201 66.6545 20.6417C66.2451 20.1974 65.7334 19.4285 65.4947 18.9329C65.2559 18.4374 64.9489 17.4463 64.8124 16.7116C64.676 15.9768 64.5566 14.9857 64.5566 14.4902C64.5566 13.9947 64.6248 13.1061 64.7271 12.5251C64.8124 11.9442 65.0341 11.0556 65.2218 10.5601C65.4094 10.0645 65.8187 9.27852 66.1428 8.81716C66.4669 8.33871 67.0979 7.70648 67.5584 7.38181C68.019 7.07424 68.7353 6.7154 69.1617 6.59579C69.5711 6.45909 70.3727 6.35657 70.9014 6.33948ZM68.7694 8.81716C68.633 9.09056 68.4283 9.79115 68.326 10.355C68.2236 10.9189 68.1384 12.3714 68.1384 13.6017C68.1384 14.8149 68.2407 16.3869 68.3771 17.1046C68.4965 17.8052 68.7694 18.7621 68.957 19.2405C69.1617 19.7019 69.554 20.317 69.844 20.6075C70.2533 21.0005 70.5262 21.1201 71.0549 21.1201C71.6178 21.1201 71.8395 21.0005 72.2489 20.5563C72.5218 20.2487 72.8799 19.5652 73.0335 19.0184C73.2722 18.2494 73.3405 17.4292 73.3234 15.225C73.3234 13.5162 73.2381 11.9954 73.1017 11.3803C72.9652 10.8164 72.7264 9.96202 72.5559 9.50066C72.3853 9.02221 72.0101 8.38997 71.7201 8.0824C71.2937 7.62104 71.072 7.5356 70.458 7.5356C69.9122 7.5356 69.6393 7.62104 69.3834 7.91153C69.1788 8.11658 68.9059 8.52667 68.7694 8.81716Z" fill="white"/>
<path d="M96.3833 19.4796C96.5197 19.1891 96.8438 18.8474 97.1167 18.7107C97.3725 18.574 97.7478 18.4714 97.9695 18.4543C98.1742 18.4543 98.6347 18.591 98.9758 18.7448C99.3852 18.9499 99.6751 19.2575 99.8457 19.6505C99.9651 19.9751 100.033 20.4707 99.9821 20.7612C99.9309 21.0516 99.6751 21.4959 99.4193 21.7522C99.1634 22.0085 98.72 22.2649 98.43 22.3161C98.1401 22.3674 97.6454 22.299 97.2873 22.1452C96.895 21.9744 96.5368 21.6668 96.3833 21.3592C96.2468 21.0687 96.1274 20.6586 96.1274 20.4194C96.1274 20.1802 96.2468 19.7701 96.3833 19.4796Z" fill="white"/>
<path d="M62.4758 13.3283C62.4587 15.8231 62.4417 13.858 62.4417 8.97097C62.4417 4.08396 62.4587 2.05055 62.4758 4.44279C62.5099 6.83504 62.5099 10.8335 62.4758 13.3283Z" fill="#05492E" fill-opacity="0.5"/>
<path d="M24.4407 16.6603C24.4236 17.7027 24.3895 16.8825 24.3895 14.8662C24.3895 12.8498 24.4236 11.9955 24.4407 12.9865C24.4748 13.9776 24.4748 15.618 24.4407 16.6603Z" fill="#05492E" fill-opacity="0.5"/>
<path d="M36.9087 14.5928C36.8916 14.4902 36.9428 14.3535 37.0281 14.3023C37.1134 14.2339 38.4096 14.1997 42.6566 14.251L39.9276 14.3194C38.0344 14.3535 37.1645 14.439 37.0793 14.5757C36.9883 14.7124 36.9314 14.7181 36.9087 14.5928Z" fill="#05492E" fill-opacity="0.5"/>
<path d="M82.4313 15.7206C82.4142 17.2755 82.3801 16.0452 82.3801 12.9866C82.3801 9.9279 82.4142 8.66343 82.4313 10.1671C82.4654 11.6708 82.4654 14.1656 82.4313 15.7206Z" fill="#05492E" fill-opacity="0.7"/>
<path d="M85.1262 0.119619C84.8533 0.153794 84.4269 0.153794 84.1881 0.119619C83.9493 0.0854445 84.1881 0.0512695 84.6998 0.0512695C85.2115 0.0512695 85.3991 0.0854445 85.1262 0.119619Z" fill="#05492E" fill-opacity="0.4"/>
<path d="M59.235 14.9515C59.218 16.7286 59.2009 15.3446 59.2009 11.8758C59.2009 8.40704 59.218 6.93752 59.235 8.62918C59.2692 10.3208 59.2692 13.1744 59.235 14.9515Z" fill="#05492E" fill-opacity="0.4"/>
<path d="M27.8519 14.6952C27.8348 16.4381 27.8177 15.054 27.8177 11.6195C27.8177 8.18488 27.8348 6.76662 27.8519 8.45828C27.886 10.1499 27.886 12.9523 27.8519 14.6952Z" fill="#05492E" fill-opacity="0.6"/>
<path d="M45.249 13.4991C45.2149 13.9263 45.1808 13.6529 45.1808 12.9011C45.1808 12.1492 45.2149 11.8075 45.249 12.1321C45.2831 12.4568 45.2831 13.072 45.249 13.4991Z" fill="#05492E" fill-opacity="0.5"/>
<path d="M44.3621 14.3022C43.9869 14.3364 43.407 14.3364 43.0829 14.3022C42.7588 14.2681 43.0659 14.2339 43.7652 14.2339C44.4645 14.2339 44.7374 14.2681 44.3621 14.3022Z" fill="#05492E" fill-opacity="0.5"/>
<path d="M86.4907 7.46718C85.8255 7.5013 84.6827 7.5013 83.9323 7.46718C83.1818 7.45013 83.7105 7.41602 85.1262 7.41602C86.5419 7.41602 87.1559 7.45013 86.4907 7.46718Z" fill="#05492E" fill-opacity="0.2"/>
<path d="M94.1659 7.46718C93.6031 7.5013 92.6138 7.5013 91.9486 7.46718C91.2834 7.43307 91.761 7.41602 92.972 7.41602C94.183 7.41602 94.7288 7.43307 94.1659 7.46718Z" fill="#05492E" fill-opacity="0.2"/>
<path d="M82.3972 6.59573L85.0409 6.49321C86.4907 6.44195 87.7016 6.3736 87.7187 6.35651C87.7358 6.33942 87.7187 6.39068 87.6846 6.4932L87.6846 6.49321C87.6334 6.59573 86.6101 6.647 82.3972 6.59573Z" fill="#05492E" fill-opacity="0.8"/>
<path d="M94.1659 6.61282C93.7054 6.647 92.8526 6.647 92.2897 6.61282C91.7269 6.57865 92.1192 6.56156 93.1425 6.56156C94.1659 6.56156 94.6264 6.57865 94.1659 6.61282Z" fill="#05492E" fill-opacity="0.8"/>
<path d="M78.9689 7.29632C78.7813 7.3305 78.389 7.3305 78.1161 7.29632C77.8432 7.26215 77.9967 7.22797 78.4743 7.22797C78.9348 7.22797 79.1736 7.26215 78.9689 7.29632Z" fill="#05492E" fill-opacity="0.8"/>
<path d="M87.7187 15.9768C87.7016 17.4805 87.6675 16.1818 87.6675 13.0719C87.6675 9.96197 87.7016 8.74876 87.7187 10.3379C87.7528 11.927 87.7528 14.4731 87.7187 15.9768Z" fill="#05492E" fill-opacity="0.8"/>
<path d="M31.0925 13.4991C31.0754 15.9938 31.0583 13.9946 31.0583 9.05634C31.0583 4.11806 31.0754 2.08465 31.0925 4.52816C31.1266 6.97166 31.1266 11.0043 31.0925 13.4991Z" fill="#064A2E" fill-opacity="0.3"/>
<path d="M21.3705 18.1981C21.3364 18.762 21.3193 18.3861 21.3193 17.3437C21.3193 16.3014 21.3364 15.84 21.3705 16.3185C21.4046 16.7798 21.4046 17.6342 21.3705 18.1981Z" fill="#05492E" fill-opacity="0.8"/>
<path d="M73.5622 15.7204C73.5281 16.0451 73.494 15.8571 73.494 15.2932C73.494 14.7294 73.5281 14.456 73.5622 14.6952C73.5964 14.9344 73.5964 15.3958 73.5622 15.7204Z" fill="#05492E" fill-opacity="0.7"/>
<path d="M68.1042 13.9262C68.0701 14.3022 68.036 14.0629 68.036 13.4136C68.036 12.7643 68.0701 12.4396 68.1042 12.7301C68.1383 13.0206 68.1383 13.5503 68.1042 13.9262Z" fill="#05492E" fill-opacity="0.3"/>
</svg>
