<svg width="101" height="71" viewBox="0 0 101 71" fill="none" xmlns="http://www.w3.org/2000/svg">
<path d="M42.3358 8.46634C45.5586 5.10834 50.0454 3.02578 55.0077 3.02578C61.6041 3.02578 67.3593 6.70407 70.424 12.1646C73.0874 10.9745 76.0354 10.3126 79.1372 10.3126C91.0347 10.3126 100.68 20.0421 100.68 32.0435C100.68 44.0463 91.0347 53.7759 79.1372 53.7759C77.6852 53.7759 76.266 53.6307 74.8938 53.3531C72.1949 58.1673 67.0518 61.42 61.1486 61.42C58.6775 61.42 56.3401 60.8492 54.259 59.8342C51.523 66.2698 45.1487 70.7822 37.7195 70.7822C29.9828 70.7822 23.3893 65.8869 20.8583 59.0214C19.7523 59.2563 18.6064 59.3787 17.4306 59.3787C8.21919 59.3787 0.751587 51.8342 0.751587 42.5261C0.751587 36.2883 4.10674 30.8421 9.09178 27.9282C8.06545 25.5667 7.49463 22.9603 7.49463 20.2201C7.49463 9.51545 16.185 0.837883 26.9039 0.837883C33.1971 0.837883 38.7899 3.83005 42.3358 8.46634Z" fill="white"/>
<path d="M15.2253 37.1094C15.1627 37.2731 15.2481 37.3073 15.268 37.3357C15.4559 37.4724 15.6467 37.5706 15.8389 37.6802C16.8581 38.2211 17.8204 38.3792 18.8268 38.3792C20.8766 38.3792 22.1492 37.2888 22.1492 35.5336V35.4994C22.1492 33.8767 20.7129 33.2873 19.3648 32.8617L19.1897 32.8048C18.1734 32.4745 17.2965 32.1898 17.2965 31.5208V31.4852C17.2965 30.913 17.809 30.4916 18.6033 30.4916C19.4858 30.4916 20.5335 30.7849 21.2082 31.1578C21.2082 31.1578 21.4061 31.2859 21.4787 31.0938C21.5186 30.9913 21.8602 30.0717 21.8958 29.972C21.9342 29.8639 21.8659 29.7841 21.7961 29.7414C21.026 29.2731 19.9613 28.9528 18.8595 28.9528L18.6545 28.9543C16.7784 28.9543 15.4688 30.0873 15.4688 31.7115V31.7457C15.4688 33.4582 16.9136 34.0133 18.2673 34.4005L18.4851 34.4674C19.4716 34.7706 20.3214 35.0311 20.3214 35.7258V35.7599C20.3214 36.3948 19.7691 36.8674 18.878 36.8674C18.5321 36.8674 17.4289 36.8603 16.2374 36.1073C16.0937 36.0233 16.0097 35.9621 15.8987 35.8952C15.8403 35.8582 15.6937 35.7941 15.6296 35.9877L15.2253 37.1094Z" fill="#2F1893"/>
<path d="M45.2338 37.1094C45.1711 37.2731 45.2565 37.3073 45.2765 37.3357C45.4644 37.4724 45.6551 37.5706 45.8473 37.6802C46.8665 38.2211 47.8288 38.3792 48.8352 38.3792C50.885 38.3792 52.1576 37.2888 52.1576 35.5336V35.4994C52.1576 33.8767 50.7213 33.2873 49.3733 32.8617L49.1982 32.8048C48.1818 32.4745 47.3049 32.1898 47.3049 31.5208V31.4852C47.3049 30.913 47.8174 30.4916 48.6117 30.4916C49.4943 30.4916 50.5419 30.7849 51.2167 31.1578C51.2167 31.1578 51.4145 31.2859 51.4871 31.0938C51.527 30.9913 51.8686 30.0717 51.9042 29.972C51.9427 29.8639 51.8743 29.7841 51.8046 29.7414C51.0345 29.2731 49.9697 28.9528 48.8679 28.9528L48.6629 28.9543C46.7868 28.9543 45.4772 30.0873 45.4772 31.7115V31.7457C45.4772 33.4582 46.922 34.0133 48.2758 34.4005L48.4935 34.4674C49.48 34.7706 50.3313 35.0311 50.3313 35.7258V35.7599C50.3313 36.3948 49.7775 36.8674 48.8864 36.8674C48.5405 36.8674 47.4373 36.8603 46.2459 36.1073C46.1021 36.0233 46.0167 35.9649 45.9085 35.8952C45.8715 35.871 45.6978 35.8041 45.638 35.9877L45.2338 37.1094Z" fill="#2F1893"/>
<path d="M65.7197 33.671C65.7197 34.6631 65.5347 35.4446 65.1703 35.997C64.8101 36.5436 64.2649 36.8098 63.5048 36.8098C62.7432 36.8098 62.2009 36.545 61.8464 35.997C61.4877 35.4461 61.3055 34.6631 61.3055 33.671C61.3055 32.6802 61.4877 31.9002 61.8464 31.3535C62.2009 30.8126 62.7432 30.5493 63.5048 30.5493C64.2649 30.5493 64.8101 30.8126 65.1717 31.3535C65.5347 31.9002 65.7197 32.6802 65.7197 33.671ZM67.4308 31.8318C67.2628 31.2639 67.0009 30.7628 66.6521 30.3457C66.3034 29.9272 65.8621 29.5913 65.3382 29.3464C64.8158 29.103 64.198 28.9792 63.5048 28.9792C62.8101 28.9792 62.1923 29.103 61.6699 29.3464C61.1461 29.5913 60.7048 29.9272 60.3546 30.3457C60.0073 30.7642 59.7454 31.2653 59.576 31.8318C59.4094 32.397 59.3254 33.0148 59.3254 33.671C59.3254 34.3272 59.4094 34.9464 59.576 35.5101C59.7454 36.0767 60.0059 36.5777 60.356 36.9962C60.7048 37.4147 61.1475 37.7493 61.6699 37.987C62.1938 38.2247 62.8101 38.3457 63.5048 38.3457C64.198 38.3457 64.8144 38.2247 65.3382 37.987C65.8607 37.7493 66.3034 37.4147 66.6521 36.9962C67.0009 36.5792 67.2628 36.0781 67.4308 35.5101C67.5987 34.945 67.6827 34.3258 67.6827 33.671C67.6827 33.0162 67.5987 32.397 67.4308 31.8318Z" fill="#2F1893"/>
<path d="M81.4815 36.5451C81.4246 36.3786 81.2637 36.4412 81.2637 36.4412C81.0146 36.5366 80.7499 36.6248 80.468 36.669C80.1819 36.7131 79.8673 36.7359 79.5299 36.7359C78.7015 36.7359 78.0438 36.4896 77.5726 36.0028C77.1 35.5159 76.8353 34.7287 76.8381 33.664C76.841 32.6946 77.0744 31.9658 77.4943 31.4106C77.9114 30.8583 78.5463 30.575 79.3933 30.575C80.0993 30.575 80.6374 30.6562 81.2011 30.8341C81.2011 30.8341 81.3363 30.8925 81.4004 30.7159C81.5499 30.3003 81.6609 30.0028 81.8203 29.5458C81.8659 29.4163 81.7548 29.3608 81.715 29.3451C81.4929 29.2583 80.9691 29.1174 80.5733 29.0576C80.2032 29.0006 79.7705 28.9708 79.2894 28.9708C78.5705 28.9708 77.9299 29.0932 77.3819 29.338C76.8353 29.5814 76.3712 29.9174 76.004 30.3359C75.6367 30.7544 75.3577 31.2554 75.1712 31.822C74.9862 32.3871 74.8922 33.0078 74.8922 33.664C74.8922 35.0832 75.2751 36.2305 76.031 37.0704C76.7883 37.9131 77.9257 38.3416 79.4089 38.3416C80.2858 38.3416 81.1854 38.1636 81.8317 37.9088C81.8317 37.9088 81.9555 37.849 81.9015 37.7053L81.4815 36.5451Z" fill="#2F1893"/>
<path d="M84.4752 32.7209C84.5564 32.17 84.7087 31.7116 84.9436 31.3543C85.298 30.812 85.8389 30.5145 86.5991 30.5145C87.3592 30.5145 87.8617 30.8134 88.2219 31.3543C88.461 31.7116 88.5649 32.1899 88.6062 32.7209H84.4752ZM90.2361 31.5095C90.0909 30.9614 89.7307 30.4077 89.4945 30.1543C89.1215 29.7529 88.7571 29.4725 88.3955 29.3159C87.9229 29.1137 87.3564 28.9799 86.7357 28.9799C86.0126 28.9799 85.3564 29.1009 84.824 29.3515C84.2902 29.602 83.8418 29.9436 83.4902 30.3693C83.1386 30.7935 82.8738 31.2988 82.7059 31.8725C82.5365 32.4433 82.451 33.0653 82.451 33.7216C82.451 34.3892 82.5393 35.0112 82.7144 35.5707C82.8909 36.1344 83.1728 36.6312 83.5542 37.0426C83.9343 37.4568 84.424 37.7813 85.0105 38.0077C85.5927 38.2326 86.3002 38.3493 87.113 38.3479C88.7856 38.3422 89.6667 37.9692 90.0297 37.7685C90.0937 37.7329 90.155 37.6703 90.0781 37.491L89.6994 36.4305C89.6425 36.2724 89.4816 36.3308 89.4816 36.3308C89.0674 36.4845 88.4781 36.7607 87.1044 36.7579C86.2062 36.7564 85.54 36.4917 85.1229 36.0774C84.6945 35.6532 84.4852 35.0297 84.4482 34.15L90.2404 34.1557C90.2404 34.1557 90.3927 34.1529 90.4083 34.0048C90.414 33.9422 90.6076 32.8148 90.2361 31.5095Z" fill="#2F1893"/>
<path d="M38.0884 32.7209C38.171 32.17 38.3219 31.7116 38.5567 31.3543C38.9112 30.812 39.4521 30.5145 40.2122 30.5145C40.9724 30.5145 41.4749 30.8134 41.8364 31.3543C42.0742 31.7116 42.1781 32.1899 42.2194 32.7209H38.0884ZM43.8478 31.5095C43.7026 30.9614 43.3439 30.4077 43.1076 30.1543C42.7347 29.7529 42.3702 29.4725 42.0087 29.3159C41.5361 29.1137 40.9695 28.9799 40.3489 28.9799C39.6272 28.9799 38.9695 29.1009 38.4372 29.3515C37.9034 29.602 37.455 29.9436 37.1034 30.3693C36.7518 30.7935 36.487 31.2988 36.319 31.8725C36.151 32.4433 36.0642 33.0653 36.0642 33.7216C36.0642 34.3892 36.1525 35.0112 36.3276 35.5707C36.5041 36.1344 36.7859 36.6312 37.1674 37.0426C37.5475 37.4568 38.0372 37.7813 38.6236 38.0077C39.2058 38.2326 39.9133 38.3493 40.7261 38.3479C42.3987 38.3422 43.2799 37.9692 43.6428 37.7685C43.7069 37.7329 43.7681 37.6703 43.6912 37.491L43.314 36.4305C43.2557 36.2724 43.0948 36.3308 43.0948 36.3308C42.6806 36.4845 42.0927 36.7607 40.7162 36.7579C39.8194 36.7564 39.1532 36.4917 38.7361 36.0774C38.3076 35.6532 38.0984 35.0297 38.0614 34.15L43.8535 34.1557C43.8535 34.1557 44.0058 34.1529 44.0215 34.0048C44.0272 33.9422 44.2208 32.8148 43.8478 31.5095Z" fill="#2F1893"/>
<path d="M25.5688 36.5132C25.3425 36.3324 25.3111 36.2869 25.2343 36.1702C25.1204 35.9922 25.062 35.7389 25.062 35.4171C25.062 34.9075 25.23 34.5417 25.5787 34.2954C25.5745 34.2969 26.077 33.8613 27.2585 33.8769C28.0884 33.8883 28.83 34.0107 28.83 34.0107V36.6442H28.8314C28.8314 36.6442 28.0955 36.8022 27.267 36.852C26.0884 36.9232 25.5645 36.5118 25.5688 36.5132ZM27.8734 32.4435C27.6385 32.4264 27.3339 32.4164 26.9695 32.4164C26.4727 32.4164 25.993 32.4791 25.5432 32.6001C25.0905 32.7211 24.6834 32.9104 24.3332 33.1609C23.9816 33.4129 23.6983 33.7346 23.4933 34.1161C23.2884 34.4976 23.1844 34.9474 23.1844 35.4513C23.1844 35.9638 23.2727 36.4093 23.4492 36.7737C23.6257 37.1396 23.8805 37.4442 24.2051 37.6791C24.5268 37.9139 24.9239 38.0862 25.3852 38.1901C25.8392 38.294 26.3545 38.3467 26.9182 38.3467C27.5118 38.3467 28.104 38.2983 28.6777 38.2001C29.2456 38.1033 29.9432 37.9623 30.1367 37.9182C30.3289 37.8727 30.5424 37.8143 30.5424 37.8143C30.6862 37.7787 30.6748 37.625 30.6748 37.625L30.672 32.3282C30.672 31.1666 30.3617 30.3054 29.751 29.7716C29.1432 29.2392 28.2478 28.9702 27.0905 28.9702C26.6563 28.9702 25.9574 29.03 25.5389 29.114C25.5389 29.114 24.2734 29.3588 23.7524 29.7659C23.7524 29.7659 23.6385 29.8371 23.7012 29.9965L24.1111 31.0983C24.1624 31.2406 24.3005 31.1922 24.3005 31.1922C24.3005 31.1922 24.3446 31.1752 24.3958 31.1453C25.5104 30.5389 26.9197 30.5574 26.9197 30.5574C27.546 30.5574 28.0271 30.6826 28.3517 30.9317C28.6677 31.1737 28.8286 31.5396 28.8286 32.3111V32.5559C28.3303 32.4848 27.8734 32.4435 27.8734 32.4435Z" fill="#2F1893"/>
<path d="M74.5896 29.459C74.6337 29.3281 74.5412 29.2655 74.5028 29.2512C74.4046 29.2128 73.912 29.1089 73.532 29.0847C72.8046 29.0405 72.4003 29.163 72.0387 29.3252C71.68 29.4875 71.2814 29.7494 71.0594 30.0469V29.3423C71.0594 29.2441 70.9896 29.1658 70.8928 29.1658H69.4081C69.3113 29.1658 69.2416 29.2441 69.2416 29.3423V37.9814C69.2416 38.0782 69.3213 38.158 69.4181 38.158H70.9398C71.0366 38.158 71.1149 38.0782 71.1149 37.9814V33.6654C71.1149 33.0861 71.1789 32.5082 71.3071 32.1452C71.4323 31.7864 71.6031 31.4989 71.8138 31.2925C72.0259 31.0875 72.2665 30.9437 72.5298 30.8626C72.7989 30.78 73.0964 30.753 73.3071 30.753C73.6103 30.753 73.9433 30.8313 73.9433 30.8313C74.0544 30.8441 74.117 30.7758 74.154 30.6747C74.2537 30.4099 74.5355 29.6171 74.5896 29.459Z" fill="#2F1893"/>
<path d="M60.3061 25.4553C60.1211 25.3983 59.9531 25.3599 59.7339 25.3186C59.5118 25.2788 59.2471 25.2588 58.9467 25.2588C57.899 25.2588 57.0734 25.5549 56.494 26.1385C55.9175 26.7193 55.5261 27.6033 55.3296 28.7663L55.2584 29.1578H53.9432C53.9432 29.1578 53.7837 29.1521 53.7496 29.3257L53.5346 30.5314C53.519 30.6453 53.5688 30.7179 53.7225 30.7179H55.0022L53.704 37.9663C53.6029 38.5499 53.4862 39.0296 53.3567 39.394C53.23 39.7527 53.1061 40.0218 52.9524 40.2182C52.8044 40.4061 52.6649 40.5456 52.4229 40.6268C52.2236 40.6937 51.993 40.725 51.741 40.725C51.6015 40.725 51.415 40.7022 51.277 40.6737C51.1403 40.6467 51.0677 40.6168 50.9638 40.5727C50.9638 40.5727 50.8143 40.5157 50.7545 40.6652C50.7076 40.789 50.3659 41.7271 50.3247 41.8424C50.2848 41.9577 50.3417 42.0474 50.4143 42.0745C50.5852 42.1342 50.7118 42.1741 50.9439 42.2296C51.2656 42.3051 51.5375 42.3093 51.7923 42.3093C52.3246 42.3093 52.8115 42.2339 53.2143 42.0887C53.6186 41.9421 53.9716 41.6873 54.2848 41.3428C54.6221 40.9698 54.8343 40.5798 55.0364 40.046C55.2371 39.5193 55.4093 38.8645 55.546 38.1015L56.8513 30.7179H58.7588C58.7588 30.7179 58.9197 30.7236 58.9524 30.5485L59.1688 29.3442C59.183 29.2289 59.1346 29.1578 58.9794 29.1578H57.1275C57.1375 29.1165 57.2214 28.4645 57.4335 27.851C57.5246 27.5905 57.6955 27.3784 57.8392 27.2332C57.9816 27.0909 58.1453 26.9898 58.3246 26.9314C58.5083 26.8716 58.7175 26.8432 58.9467 26.8432C59.1204 26.8432 59.2926 26.8631 59.4221 26.8901C59.6015 26.9286 59.6712 26.9485 59.7182 26.9627C59.9075 27.0197 59.9332 26.9642 59.9702 26.8731L60.4129 25.6574C60.4584 25.5264 60.346 25.4709 60.3061 25.4553Z" fill="#2F1893"/>
<path d="M34.4307 37.9819C34.4307 38.0787 34.361 38.157 34.2642 38.157H32.7282C32.6314 38.157 32.5631 38.0787 32.5631 37.9819V25.6204C32.5631 25.5236 32.6314 25.4453 32.7282 25.4453H34.2642C34.361 25.4453 34.4307 25.5236 34.4307 25.6204V37.9819Z" fill="#2F1893"/>
</svg>
