<svg width="1440" height="4373" viewBox="0 0 1440 4373" fill="none" xmlns="http://www.w3.org/2000/svg">
<g clip-path="url(#clip0_16006_252)">
<rect width="1440" height="4373" fill="white"/>
<g filter="url(#filter0_f_16006_252)">
<rect x="305" y="-236" width="433" height="361" rx="180.5" fill="#29C7D2" fill-opacity="0.4"/>
</g>
<g filter="url(#filter1_f_16006_252)">
<rect x="587" y="-184" width="433" height="361" rx="180.5" fill="#549AFF"/>
</g>
<g opacity="0.43" filter="url(#filter2_f_16006_252)">
<rect x="-309" y="1827.69" width="433" height="361" rx="180.5" fill="#549AFF"/>
</g>
<path fill-rule="evenodd" clip-rule="evenodd" d="M1378.9 -18V9.8633L1471.97 9.8633V-18H1472.72V9.8633L1501.81 9.8633V10.6148L1472.72 10.6148V103.684H1501.81V104.435H1472.72V197.504H1501.81V198.255H1472.72L1472.72 291.324H1501.81V292.076H1472.72V385.152H1501.81V385.904H1472.72V478.973H1501.81V479.724H1472.72V508.81H1471.97V479.724H1378.9V508.81H1378.15V479.724H1285.07V508.81H1284.32V479.724H1191.25V508.81H1190.5V479.724H1097.43V508.81H1096.68V479.724L1003.61 479.724L1003.61 508.81H1002.86L1002.86 479.724H975V478.973H1002.86L1002.86 385.904H975V385.152H1002.86L1002.86 292.076H975V291.324H1002.86L1002.86 198.255H975V197.504H1002.86L1002.86 104.435H975V103.684H1002.86L1002.86 10.6147L975 10.6147V9.86328L1002.86 9.86328L1002.86 -18H1003.61L1003.61 9.86328L1096.68 9.86328V-18H1097.43V9.86328L1190.5 9.86329V-18H1191.25V9.86329L1284.32 9.86329V-18H1285.07V9.86329L1378.15 9.8633V-18H1378.9ZM1003.61 10.6147L1003.61 103.684L1096.68 103.684L1096.68 10.6148L1003.61 10.6147ZM1003.61 104.435L1003.61 197.504L1096.68 197.504V104.435L1003.61 104.435ZM1003.61 198.255L1003.61 291.324L1096.68 291.324L1096.68 198.255L1003.61 198.255ZM1003.61 292.076L1003.61 385.152L1096.68 385.152V292.076L1003.61 292.076ZM1003.61 385.904L1003.61 478.973L1096.68 478.973L1096.68 385.904L1003.61 385.904ZM1190.5 478.973H1097.43L1097.43 385.904H1190.5V478.973ZM1190.5 385.152H1097.43V292.076H1190.5V385.152ZM1190.5 291.324H1097.43L1097.43 198.255H1190.5L1190.5 291.324ZM1190.5 197.504H1097.43V104.435H1190.5V197.504ZM1190.5 103.684H1097.43L1097.43 10.6148L1190.5 10.6148V103.684ZM1191.25 10.6148V103.684L1284.32 103.684V10.6148L1191.25 10.6148ZM1191.25 104.435L1191.25 197.504H1284.32V104.435L1191.25 104.435ZM1191.25 198.255V291.324H1284.32L1284.32 198.255L1191.25 198.255ZM1191.25 292.076L1191.25 385.152H1284.32V292.076H1191.25ZM1191.25 385.904V478.973H1284.32V385.904H1191.25ZM1378.15 478.973H1285.07V385.904H1378.15V478.973ZM1378.15 385.152H1285.07V292.076H1378.15V385.152ZM1378.15 291.324H1285.07L1285.07 198.255H1378.15L1378.15 291.324ZM1378.15 197.504H1285.07V104.435H1378.15V197.504ZM1378.15 103.684H1285.07V10.6148L1378.15 10.6148V103.684ZM1471.97 478.973V385.904H1378.9V478.973H1471.97ZM1471.97 385.152V292.076H1378.9V385.152H1471.97ZM1471.97 291.324L1471.97 198.255H1378.9L1378.9 291.324H1471.97ZM1471.97 197.504V104.435L1378.9 104.435V197.504H1471.97ZM1471.97 103.684V10.6148L1378.9 10.6148V103.684L1471.97 103.684Z" fill="url(#paint0_radial_16006_252)" fill-opacity="0.6"/>
<path fill-rule="evenodd" clip-rule="evenodd" d="M1287.59 1501.78V1529.65L1380.65 1529.65V1501.78H1381.41V1529.65L1410.5 1529.65V1530.4L1381.41 1530.4V1623.47H1410.5V1624.22H1381.41V1717.29H1410.5V1718.04H1381.41L1381.41 1811.11H1410.5V1811.86H1381.41V1904.94H1410.5V1905.69H1381.41V1998.76H1410.5V1999.51H1381.41V2028.59H1380.65V1999.51H1287.59V2028.59H1286.83V1999.51H1193.76V2028.59H1193.01V1999.51H1099.94V2028.59H1099.19V1999.51H1006.12V2028.59H1005.37V1999.51L912.297 1999.51L912.297 2028.59H911.545L911.545 1999.51H883.688V1998.76H911.545L911.545 1905.69H883.688V1904.94H911.545L911.545 1811.86H883.688V1811.11H911.545L911.545 1718.04H883.688V1717.29H911.545L911.545 1624.22H883.688V1623.47H911.545L911.545 1530.4L883.688 1530.4V1529.65L911.545 1529.65L911.545 1501.78H912.297L912.297 1529.65L1005.37 1529.65V1501.78H1006.12V1529.65L1099.19 1529.65V1501.78H1099.94V1529.65L1193.01 1529.65V1501.78H1193.76V1529.65L1286.83 1529.65V1501.78H1287.59ZM912.297 1530.4L912.297 1623.47L1005.37 1623.47L1005.37 1530.4L912.297 1530.4ZM912.297 1624.22L912.297 1717.29L1005.37 1717.29V1624.22L912.297 1624.22ZM912.297 1718.04L912.297 1811.11L1005.37 1811.11L1005.37 1718.04L912.297 1718.04ZM912.297 1811.86L912.297 1904.94L1005.37 1904.94V1811.86L912.297 1811.86ZM912.297 1905.69L912.297 1998.76L1005.37 1998.76L1005.37 1905.69L912.297 1905.69ZM1099.19 1998.76H1006.12L1006.12 1905.69H1099.19V1998.76ZM1099.19 1904.94H1006.12V1811.86H1099.19V1904.94ZM1099.19 1811.11H1006.12L1006.12 1718.04H1099.19L1099.19 1811.11ZM1099.19 1717.29H1006.12V1624.22H1099.19V1717.29ZM1099.19 1623.47H1006.12L1006.12 1530.4L1099.19 1530.4V1623.47ZM1099.94 1530.4V1623.47L1193.01 1623.47V1530.4L1099.94 1530.4ZM1099.94 1624.22L1099.94 1717.29H1193.01V1624.22L1099.94 1624.22ZM1099.94 1718.04V1811.11H1193.01L1193.01 1718.04L1099.94 1718.04ZM1099.94 1811.86L1099.94 1904.94H1193.01V1811.86H1099.94ZM1099.94 1905.69V1998.76H1193.01V1905.69H1099.94ZM1286.83 1998.76H1193.76V1905.69H1286.83V1998.76ZM1286.83 1904.94H1193.76V1811.86H1286.83V1904.94ZM1286.83 1811.11H1193.76L1193.76 1718.04H1286.83L1286.83 1811.11ZM1286.83 1717.29H1193.76V1624.22H1286.83V1717.29ZM1286.83 1623.47H1193.76V1530.4L1286.83 1530.4V1623.47ZM1380.65 1998.76V1905.69H1287.59V1998.76H1380.65ZM1380.65 1904.94V1811.86H1287.59V1904.94H1380.65ZM1380.65 1811.11L1380.65 1718.04H1287.59L1287.59 1811.11H1380.65ZM1380.65 1717.29V1624.22L1287.59 1624.22V1717.29H1380.65ZM1380.65 1623.47V1530.4L1287.59 1530.4V1623.47L1380.65 1623.47Z" fill="url(#paint1_radial_16006_252)" fill-opacity="0.6"/>
<path fill-rule="evenodd" clip-rule="evenodd" d="M253.898 3331V3358.86L346.967 3358.86V3331H347.719V3358.86L376.81 3358.86V3359.61L347.719 3359.61V3452.68H376.81V3453.44H347.719V3546.5H376.81V3547.26H347.719L347.719 3640.32H376.81V3641.08H347.719V3734.15H376.81V3734.9H347.719V3827.97H376.81V3828.72H347.719V3857.81H346.967V3828.72H253.898V3857.81H253.147V3828.72H160.07V3857.81H159.319V3828.72H66.25V3857.81H65.4985V3828.72H-27.5703V3857.81H-28.3218V3828.72L-121.391 3828.72L-121.391 3857.81H-122.142L-122.142 3828.72H-150V3827.97H-122.142L-122.142 3734.9H-150V3734.15H-122.142L-122.142 3641.08H-150V3640.32H-122.142L-122.142 3547.26H-150V3546.5H-122.142L-122.142 3453.44H-150V3452.68H-122.142L-122.142 3359.61L-150 3359.61V3358.86L-122.142 3358.86L-122.142 3331H-121.391L-121.391 3358.86L-28.3218 3358.86V3331H-27.5703V3358.86L65.4986 3358.86V3331H66.25V3358.86L159.319 3358.86V3331H160.07V3358.86L253.147 3358.86V3331H253.898ZM-121.391 3359.61L-121.391 3452.68L-28.3218 3452.68L-28.3218 3359.61L-121.391 3359.61ZM-121.391 3453.44L-121.391 3546.5L-28.3218 3546.5V3453.44L-121.391 3453.44ZM-121.391 3547.26L-121.391 3640.32L-28.3218 3640.32L-28.3218 3547.26L-121.391 3547.26ZM-121.391 3641.08L-121.391 3734.15L-28.3218 3734.15V3641.08L-121.391 3641.08ZM-121.391 3734.9L-121.391 3827.97L-28.3218 3827.97L-28.3218 3734.9L-121.391 3734.9ZM65.4985 3827.97H-27.5703L-27.5703 3734.9H65.4985V3827.97ZM65.4985 3734.15H-27.5703V3641.08H65.4985V3734.15ZM65.4985 3640.32H-27.5703L-27.5703 3547.26H65.4986L65.4985 3640.32ZM65.4986 3546.5H-27.5703V3453.44H65.4986V3546.5ZM65.4986 3452.68H-27.5703L-27.5703 3359.61L65.4986 3359.61V3452.68ZM66.25 3359.61V3452.68L159.319 3452.68V3359.61L66.25 3359.61ZM66.25 3453.44L66.25 3546.5H159.319V3453.44L66.25 3453.44ZM66.25 3547.26V3640.32H159.319L159.319 3547.26L66.25 3547.26ZM66.25 3641.08L66.25 3734.15H159.319V3641.08H66.25ZM66.25 3734.9V3827.97H159.319V3734.9H66.25ZM253.147 3827.97H160.07V3734.9H253.147V3827.97ZM253.147 3734.15H160.07V3641.08H253.147V3734.15ZM253.147 3640.32H160.07L160.07 3547.26H253.147L253.147 3640.32ZM253.147 3546.5H160.07V3453.44H253.147V3546.5ZM253.147 3452.68H160.07V3359.61L253.147 3359.61V3452.68ZM346.967 3827.97V3734.9H253.898V3827.97H346.967ZM346.967 3734.15V3641.08H253.898V3734.15H346.967ZM346.967 3640.32L346.967 3547.26H253.898L253.898 3640.32H346.967ZM346.967 3546.5V3453.44L253.898 3453.44V3546.5H346.967ZM346.967 3452.68V3359.61L253.898 3359.61V3452.68L346.967 3452.68Z" fill="url(#paint2_radial_16006_252)" fill-opacity="0.6"/>
<path fill-rule="evenodd" clip-rule="evenodd" d="M352.898 -26V1.8633L445.967 1.8633V-26H446.719V1.8633L475.81 1.8633V2.61477L446.719 2.61477V95.6836H475.81V96.4351H446.719V189.504H475.81V190.255H446.719L446.719 283.324H475.81V284.076H446.719V377.152H475.81V377.904H446.719V470.973H475.81V471.724H446.719V500.81H445.967V471.724H352.898V500.81H352.147V471.724H259.07V500.81H258.319V471.724H165.25V500.81H164.499V471.724H71.4297V500.81H70.6782V471.724L-22.3906 471.724L-22.3906 500.81H-23.1421L-23.1421 471.724H-51V470.973H-23.1421L-23.1421 377.904H-51V377.152H-23.1421L-23.1421 284.076H-51V283.324H-23.1421L-23.1421 190.255H-51V189.504H-23.1421L-23.1421 96.4351H-51V95.6836H-23.1421L-23.1421 2.61475L-51 2.61475V1.86328L-23.1421 1.86328L-23.1421 -26H-22.3906L-22.3906 1.86328L70.6782 1.86328V-26H71.4297V1.86328L164.499 1.86329V-26H165.25V1.86329L258.319 1.86329V-26H259.07V1.86329L352.147 1.8633V-26H352.898ZM-22.3906 2.61475L-22.3906 95.6836L70.6782 95.6836L70.6782 2.61475L-22.3906 2.61475ZM-22.3906 96.4351L-22.3906 189.504L70.6782 189.504V96.4351L-22.3906 96.4351ZM-22.3906 190.255L-22.3906 283.324L70.6782 283.324L70.6782 190.255L-22.3906 190.255ZM-22.3906 284.076L-22.3906 377.152L70.6782 377.152V284.076L-22.3906 284.076ZM-22.3906 377.904L-22.3906 470.973L70.6782 470.973L70.6782 377.904L-22.3906 377.904ZM164.499 470.973H71.4297L71.4297 377.904H164.499V470.973ZM164.499 377.152H71.4297V284.076H164.499V377.152ZM164.499 283.324H71.4297L71.4297 190.255H164.499L164.499 283.324ZM164.499 189.504H71.4297V96.4351H164.499V189.504ZM164.499 95.6836H71.4297L71.4297 2.61475L164.499 2.61476V95.6836ZM165.25 2.61476V95.6836L258.319 95.6836V2.61476L165.25 2.61476ZM165.25 96.4351L165.25 189.504H258.319V96.4351L165.25 96.4351ZM165.25 190.255V283.324H258.319L258.319 190.255L165.25 190.255ZM165.25 284.076L165.25 377.152H258.319V284.076H165.25ZM165.25 377.904V470.973H258.319V377.904H165.25ZM352.147 470.973H259.07V377.904H352.147V470.973ZM352.147 377.152H259.07V284.076H352.147V377.152ZM352.147 283.324H259.07L259.07 190.255H352.147L352.147 283.324ZM352.147 189.504H259.07V96.4351H352.147V189.504ZM352.147 95.6836H259.07V2.61476L352.147 2.61476V95.6836ZM445.967 470.973V377.904H352.898V470.973H445.967ZM445.967 377.152V284.076H352.898V377.152H445.967ZM445.967 283.324L445.967 190.255H352.898L352.898 283.324H445.967ZM445.967 189.504V96.4351L352.898 96.4351V189.504H445.967ZM445.967 95.6836V2.61477L352.898 2.61476V95.6836L445.967 95.6836Z" fill="url(#paint3_radial_16006_252)" fill-opacity="0.6"/>
<g opacity="0.33" filter="url(#filter3_f_16006_252)">
<path d="M1262 2569.48C1262 2490.5 1326.02 2426.48 1405 2426.48H1464C1542.98 2426.48 1607 2490.5 1607 2569.48V2569.48C1607 2648.45 1542.98 2712.48 1464 2712.48H1405C1326.02 2712.48 1262 2648.45 1262 2569.48V2569.48Z" fill="#549AFF" fill-opacity="0.8"/>
</g>
<g filter="url(#filter4_f_16006_252)">
<rect x="305" y="4288" width="433" height="361" rx="180.5" fill="#29C7D2" fill-opacity="0.4"/>
</g>
<g filter="url(#filter5_f_16006_252)">
<rect x="587" y="4340" width="433" height="361" rx="180.5" fill="#549AFF"/>
</g>
<line x1="100" y1="4287.5" x2="1340" y2="4287.5" stroke="#E6E6E6"/>
</g>
<defs>
<filter id="filter0_f_16006_252" x="-195" y="-736" width="1433" height="1361" filterUnits="userSpaceOnUse" color-interpolation-filters="sRGB">
<feFlood flood-opacity="0" result="BackgroundImageFix"/>
<feBlend mode="normal" in="SourceGraphic" in2="BackgroundImageFix" result="shape"/>
<feGaussianBlur stdDeviation="250" result="effect1_foregroundBlur_16006_252"/>
</filter>
<filter id="filter1_f_16006_252" x="14.4" y="-756.6" width="1578.2" height="1506.2" filterUnits="userSpaceOnUse" color-interpolation-filters="sRGB">
<feFlood flood-opacity="0" result="BackgroundImageFix"/>
<feBlend mode="normal" in="SourceGraphic" in2="BackgroundImageFix" result="shape"/>
<feGaussianBlur stdDeviation="286.3" result="effect1_foregroundBlur_16006_252"/>
</filter>
<filter id="filter2_f_16006_252" x="-881.6" y="1255.09" width="1578.2" height="1506.2" filterUnits="userSpaceOnUse" color-interpolation-filters="sRGB">
<feFlood flood-opacity="0" result="BackgroundImageFix"/>
<feBlend mode="normal" in="SourceGraphic" in2="BackgroundImageFix" result="shape"/>
<feGaussianBlur stdDeviation="286.3" result="effect1_foregroundBlur_16006_252"/>
</filter>
<filter id="filter3_f_16006_252" x="1059.4" y="2223.88" width="750.2" height="691.2" filterUnits="userSpaceOnUse" color-interpolation-filters="sRGB">
<feFlood flood-opacity="0" result="BackgroundImageFix"/>
<feBlend mode="normal" in="SourceGraphic" in2="BackgroundImageFix" result="shape"/>
<feGaussianBlur stdDeviation="101.3" result="effect1_foregroundBlur_16006_252"/>
</filter>
<filter id="filter4_f_16006_252" x="-195" y="3788" width="1433" height="1361" filterUnits="userSpaceOnUse" color-interpolation-filters="sRGB">
<feFlood flood-opacity="0" result="BackgroundImageFix"/>
<feBlend mode="normal" in="SourceGraphic" in2="BackgroundImageFix" result="shape"/>
<feGaussianBlur stdDeviation="250" result="effect1_foregroundBlur_16006_252"/>
</filter>
<filter id="filter5_f_16006_252" x="14.4" y="3767.4" width="1578.2" height="1506.2" filterUnits="userSpaceOnUse" color-interpolation-filters="sRGB">
<feFlood flood-opacity="0" result="BackgroundImageFix"/>
<feBlend mode="normal" in="SourceGraphic" in2="BackgroundImageFix" result="shape"/>
<feGaussianBlur stdDeviation="286.3" result="effect1_foregroundBlur_16006_252"/>
</filter>
<radialGradient id="paint0_radial_16006_252" cx="0" cy="0" r="1" gradientUnits="userSpaceOnUse" gradientTransform="translate(1238.41 245.405) rotate(90) scale(115.884 263.405)">
<stop stop-color="#006AFF"/>
<stop offset="1" stop-color="white" stop-opacity="0"/>
</radialGradient>
<radialGradient id="paint1_radial_16006_252" cx="0" cy="0" r="1" gradientUnits="userSpaceOnUse" gradientTransform="translate(1147.09 1765.18) rotate(90) scale(115.884 263.405)">
<stop stop-color="#006AFF"/>
<stop offset="1" stop-color="white" stop-opacity="0"/>
</radialGradient>
<radialGradient id="paint2_radial_16006_252" cx="0" cy="0" r="1" gradientUnits="userSpaceOnUse" gradientTransform="translate(113.405 3594.41) rotate(90) scale(115.884 263.405)">
<stop stop-color="#006AFF"/>
<stop offset="1" stop-color="white" stop-opacity="0"/>
</radialGradient>
<radialGradient id="paint3_radial_16006_252" cx="0" cy="0" r="1" gradientUnits="userSpaceOnUse" gradientTransform="translate(212.405 237.405) rotate(90) scale(115.884 263.405)">
<stop stop-color="#006AFF"/>
<stop offset="1" stop-color="white" stop-opacity="0"/>
</radialGradient>
<clipPath id="clip0_16006_252">
<rect width="1440" height="4373" fill="white"/>
</clipPath>
</defs>
</svg>
