<svg width="384" height="244" viewBox="0 0 384 244" fill="none" xmlns="http://www.w3.org/2000/svg">
<g filter="url(#filter0_d_16112_2167)">
<rect x="55.3246" y="19.7993" width="273.007" height="134.309" rx="10" fill="white"/>
<line opacity="0.5" x1="62.929" y1="149.63" x2="62.929" y2="56.0367" stroke="#B1B1B1" stroke-width="0.276764"/>
<line opacity="0.5" x1="134.239" y1="149.63" x2="134.239" y2="56.0367" stroke="#B1B1B1" stroke-width="0.276764"/>
<line opacity="0.5" x1="86.6993" y1="149.63" x2="86.6993" y2="56.0367" stroke="#B1B1B1" stroke-width="0.276764"/>
<line x1="158.01" y1="149.63" x2="158.01" y2="56.0367" stroke="#B1B1B1" stroke-width="0.276764"/>
<line opacity="0.5" x1="110.476" y1="149.63" x2="110.476" y2="56.0367" stroke="#B1B1B1" stroke-width="0.276764"/>
<line opacity="0.5" x1="181.787" y1="149.63" x2="181.787" y2="56.0367" stroke="#B1B1B1" stroke-width="0.276764"/>
<line opacity="0.5" x1="211.441" y1="149.63" x2="211.441" y2="56.0367" stroke="#B1B1B1" stroke-width="0.276764"/>
<line opacity="0.5" x1="244.799" y1="149.63" x2="244.799" y2="56.0367" stroke="#B1B1B1" stroke-width="0.276764"/>
<line opacity="0.5" x1="278.156" y1="149.63" x2="278.156" y2="56.0367" stroke="#B1B1B1" stroke-width="0.276764"/>
<line opacity="0.5" x1="305.369" y1="149.63" x2="305.369" y2="56.0367" stroke="#B1B1B1" stroke-width="0.276764"/>
<path d="M62.9508 47.1005V131.49H313.134V63.119C307.706 57.7795 295.517 46.3979 290.188 43.5874C283.526 40.0743 281.306 49.1334 270.203 63.119C261.321 74.3074 251.205 67.7808 247.257 63.119L228.012 54.8C224.065 59.2288 214.985 66.1042 210.248 58.1758C205.511 50.2474 193.964 47.4888 188.783 47.1005C182.458 50.4306 167.689 58.2964 159.215 63.119C148.622 69.1472 145.225 62.5161 136.031 54.8C126.837 47.0838 116.844 56.3673 110.648 58.1758C104.452 59.9843 98.2565 51.183 96.8574 49.1334C95.4584 47.0838 87.2639 49.7362 83.0668 49.1334C79.7091 48.6512 78.4746 42.5315 73.7657 42.8471L62.9508 47.1005Z" fill="url(#paint0_linear_16112_2167)"/>
<path d="M313.134 85.5354V131.49H62.9507V94.2583C68.3788 91.3507 80.5672 85.1528 85.8965 83.6223C92.5582 81.7092 94.7787 86.6424 105.882 94.2583C114.764 100.351 124.88 96.7969 128.827 94.2583L148.072 89.7282C152.02 92.1399 161.099 95.8839 165.837 91.5665C170.574 87.249 182.121 85.7468 187.302 85.5354C193.627 87.3488 208.395 91.6321 216.87 94.2583C227.462 97.541 230.86 93.93 240.054 89.7282C249.248 85.5263 259.241 90.5817 265.437 91.5665C271.632 92.5513 277.828 87.7585 279.227 86.6424C280.626 85.5263 288.821 86.9707 293.018 86.6424C296.376 86.3798 297.61 83.0473 302.319 83.2192L313.134 85.5354Z" fill="url(#paint1_linear_16112_2167)"/>
<path d="M62.9508 47.0791L73.7657 42.8471C78.4746 42.533 79.7091 48.6219 83.0668 49.1018C87.2639 49.7016 95.4584 47.0625 96.8574 49.1018C98.2565 51.1411 104.452 59.8982 110.648 58.0988C116.844 56.2994 126.837 47.0625 136.031 54.7399C145.225 62.4174 148.622 69.0152 159.215 63.0172C167.689 58.2188 182.458 50.3924 188.783 47.0791C193.964 47.4654 205.511 50.2102 210.248 58.0988C214.985 65.9875 224.065 59.1465 228.012 54.7399L247.257 63.0172C251.205 67.6557 261.321 74.1495 270.203 63.0172C281.306 49.1018 283.526 40.0881 290.188 43.5836C295.517 46.38 307.706 57.7045 313.134 63.0172" stroke="#001DFF" stroke-width="0.553527"/>
<path d="M313.134 85.476L302.319 83.2189C297.61 83.0514 296.376 86.2989 293.018 86.5548C288.821 86.8747 280.626 85.4672 279.227 86.5548C277.828 87.6424 271.632 92.3129 265.437 91.3532C259.241 90.3935 249.248 85.4672 240.054 89.5618C230.86 93.6564 227.462 97.1753 216.87 93.9763C208.395 91.4172 193.627 87.2431 187.302 85.476C182.121 85.682 170.574 87.1459 165.837 91.3532C161.099 95.5605 152.02 91.912 148.072 89.5618L128.827 93.9763C124.88 96.4502 114.764 99.9136 105.882 93.9763C94.7788 86.5548 92.5582 81.7475 85.8965 83.6118C80.5672 85.1032 68.3788 91.1429 62.9507 93.9763" stroke="#29C7D2" stroke-width="0.553527"/>
<circle cx="80.6966" cy="141.116" r="2.76764" fill="#344BFD"/>
<rect x="86.2318" y="138.616" width="31" height="5" rx="2.5" fill="#D9D9D9"/>
<circle cx="133.339" cy="141.116" r="2.76764" fill="#A3E2EC"/>
<rect x="138.875" y="138.616" width="36" height="5" rx="2.5" fill="#D9D9D9"/>
<line x1="63.0219" y1="123.789" x2="63.0219" y2="126.52" stroke="black" stroke-width="0.553527"/>
<line x1="68.9678" y1="123.789" x2="68.9678" y2="126.52" stroke="#8A8A8A" stroke-width="0.553527"/>
<line x1="92.7381" y1="123.789" x2="92.7381" y2="126.52" stroke="#8A8A8A" stroke-width="0.553527"/>
<line x1="116.508" y1="123.789" x2="116.508" y2="126.52" stroke="#8A8A8A" stroke-width="0.553527"/>
<line x1="140.278" y1="123.789" x2="140.278" y2="126.52" stroke="#8A8A8A" stroke-width="0.553527"/>
<line x1="164.055" y1="123.789" x2="164.055" y2="126.52" stroke="#8A8A8A" stroke-width="0.553527"/>
<line x1="74.9069" y1="123.789" x2="74.9069" y2="126.52" stroke="#8A8A8A" stroke-width="0.553527"/>
<line x1="98.677" y1="123.789" x2="98.677" y2="126.52" stroke="#8A8A8A" stroke-width="0.553527"/>
<line x1="122.447" y1="123.789" x2="122.447" y2="126.52" stroke="#8A8A8A" stroke-width="0.553527"/>
<line x1="146.224" y1="123.789" x2="146.224" y2="126.52" stroke="#8A8A8A" stroke-width="0.553527"/>
<line x1="169.994" y1="123.789" x2="169.994" y2="126.52" stroke="#8A8A8A" stroke-width="0.553527"/>
<line x1="80.8461" y1="123.789" x2="80.8461" y2="126.52" stroke="#8A8A8A" stroke-width="0.553527"/>
<line x1="104.623" y1="123.789" x2="104.623" y2="126.52" stroke="#8A8A8A" stroke-width="0.553527"/>
<line x1="128.393" y1="123.789" x2="128.393" y2="126.52" stroke="#8A8A8A" stroke-width="0.553527"/>
<line x1="152.163" y1="123.789" x2="152.163" y2="126.52" stroke="#8A8A8A" stroke-width="0.553527"/>
<line x1="175.934" y1="123.789" x2="175.934" y2="126.52" stroke="#8A8A8A" stroke-width="0.553527"/>
<line x1="86.792" y1="123.789" x2="86.792" y2="126.52" stroke="black" stroke-width="0.553527"/>
<line x1="110.562" y1="123.789" x2="110.562" y2="126.52" stroke="black" stroke-width="0.553527"/>
<line x1="134.339" y1="123.789" x2="134.339" y2="126.52" stroke="black" stroke-width="0.553527"/>
<line x1="158.109" y1="123.789" x2="158.109" y2="126.52" stroke="black" stroke-width="0.553527"/>
<line x1="181.879" y1="123.789" x2="181.879" y2="126.52" stroke="black" stroke-width="0.553527"/>
<line x1="195.177" y1="123.789" x2="195.177" y2="126.52" stroke="black" stroke-width="0.553527"/>
<line x1="201.123" y1="123.789" x2="201.123" y2="126.52" stroke="#8A8A8A" stroke-width="0.553527"/>
<line x1="224.893" y1="123.789" x2="224.893" y2="126.52" stroke="#8A8A8A" stroke-width="0.553527"/>
<line x1="248.663" y1="123.789" x2="248.663" y2="126.52" stroke="#8A8A8A" stroke-width="0.553527"/>
<line x1="272.434" y1="123.789" x2="272.434" y2="126.52" stroke="#8A8A8A" stroke-width="0.553527"/>
<line x1="296.211" y1="123.789" x2="296.211" y2="126.52" stroke="#8A8A8A" stroke-width="0.553527"/>
<line x1="207.062" y1="123.789" x2="207.062" y2="126.52" stroke="#8A8A8A" stroke-width="0.553527"/>
<line x1="230.832" y1="123.789" x2="230.832" y2="126.52" stroke="#8A8A8A" stroke-width="0.553527"/>
<line x1="254.603" y1="123.789" x2="254.603" y2="126.52" stroke="#8A8A8A" stroke-width="0.553527"/>
<line x1="278.38" y1="123.789" x2="278.38" y2="126.52" stroke="#8A8A8A" stroke-width="0.553527"/>
<line x1="302.15" y1="123.789" x2="302.15" y2="126.52" stroke="#8A8A8A" stroke-width="0.553527"/>
<line x1="213.001" y1="123.789" x2="213.001" y2="126.52" stroke="#8A8A8A" stroke-width="0.553527"/>
<line x1="236.778" y1="123.789" x2="236.778" y2="126.52" stroke="#8A8A8A" stroke-width="0.553527"/>
<line x1="260.548" y1="123.789" x2="260.548" y2="126.52" stroke="#8A8A8A" stroke-width="0.553527"/>
<line x1="284.319" y1="123.789" x2="284.319" y2="126.52" stroke="#8A8A8A" stroke-width="0.553527"/>
<line x1="308.089" y1="123.789" x2="308.089" y2="126.52" stroke="#8A8A8A" stroke-width="0.553527"/>
<line x1="218.947" y1="123.789" x2="218.947" y2="126.52" stroke="black" stroke-width="0.553527"/>
<line x1="242.717" y1="123.789" x2="242.717" y2="126.52" stroke="black" stroke-width="0.553527"/>
<line x1="266.495" y1="123.789" x2="266.495" y2="126.52" stroke="black" stroke-width="0.553527"/>
<line x1="290.265" y1="123.789" x2="290.265" y2="126.52" stroke="black" stroke-width="0.553527"/>
<line x1="314.035" y1="123.789" x2="314.035" y2="126.52" stroke="black" stroke-width="0.553527"/>
</g>
<g filter="url(#filter1_d_16112_2167)">
<circle cx="65.8621" cy="35.6038" r="20.1936" fill="#136FF4"/>
<path d="M76.626 28.0672V32.3752C76.626 32.6608 76.5126 32.9348 76.3106 33.1368C76.1086 33.3387 75.8347 33.4522 75.549 33.4522C75.2634 33.4522 74.9895 33.3387 74.7875 33.1368C74.5855 32.9348 74.472 32.6608 74.472 32.3752V30.7813L67.7408 38.471C67.6399 38.5859 67.5157 38.6779 67.3764 38.7411C67.2371 38.8042 67.086 38.837 66.9331 38.8372C66.7852 38.8409 66.6381 38.8142 66.5009 38.7586C66.3638 38.703 66.2396 38.6198 66.1361 38.5141L63.7236 36.0801L56.9386 43.856C56.8474 43.9692 56.7342 44.0628 56.6059 44.1311C56.4775 44.1994 56.3367 44.241 56.1918 44.2534C56.047 44.2659 55.9011 44.2488 55.763 44.2034C55.6249 44.1579 55.4975 44.0849 55.3883 43.9889C55.2792 43.8929 55.1906 43.7757 55.128 43.6445C55.0653 43.5133 55.0299 43.3708 55.0238 43.2255C55.0177 43.0803 55.0411 42.9353 55.0925 42.7993C55.1439 42.6633 55.2224 42.5392 55.3231 42.4343L62.862 33.8184C62.9591 33.7072 63.0779 33.6172 63.2111 33.5539C63.3443 33.4906 63.4891 33.4553 63.6366 33.4502C63.784 33.4452 63.9309 33.4705 64.0681 33.5245C64.2054 33.5786 64.3301 33.6603 64.4345 33.7645L66.9331 36.177L73.0396 29.1442H71.2411C70.9554 29.1442 70.6815 29.0308 70.4795 28.8288C70.2775 28.6268 70.1641 28.3529 70.1641 28.0672C70.1641 27.7816 70.2775 27.5077 70.4795 27.3057C70.6815 27.1037 70.9554 26.9902 71.2411 26.9902H75.549C75.8347 26.9902 76.1086 27.1037 76.3106 27.3057C76.5126 27.5077 76.626 27.7816 76.626 28.0672Z" fill="white"/>
</g>
<defs>
<filter id="filter0_d_16112_2167" x="0.624584" y="0.0993156" width="382.407" height="243.709" filterUnits="userSpaceOnUse" color-interpolation-filters="sRGB">
<feFlood flood-opacity="0" result="BackgroundImageFix"/>
<feColorMatrix in="SourceAlpha" type="matrix" values="0 0 0 0 0 0 0 0 0 0 0 0 0 0 0 0 0 0 127 0" result="hardAlpha"/>
<feOffset dy="35"/>
<feGaussianBlur stdDeviation="27.35"/>
<feComposite in2="hardAlpha" operator="out"/>
<feColorMatrix type="matrix" values="0 0 0 0 0.766748 0 0 0 0 0.766748 0 0 0 0 0.766748 0 0 0 0.2 0"/>
<feBlend mode="normal" in2="BackgroundImageFix" result="effect1_dropShadow_16112_2167"/>
<feBlend mode="normal" in="SourceGraphic" in2="effect1_dropShadow_16112_2167" result="shape"/>
</filter>
<filter id="filter1_d_16112_2167" x="17.3685" y="0.110157" width="96.9873" height="96.9872" filterUnits="userSpaceOnUse" color-interpolation-filters="sRGB">
<feFlood flood-opacity="0" result="BackgroundImageFix"/>
<feColorMatrix in="SourceAlpha" type="matrix" values="0 0 0 0 0 0 0 0 0 0 0 0 0 0 0 0 0 0 127 0" result="hardAlpha"/>
<feOffset dy="13"/>
<feGaussianBlur stdDeviation="14.15"/>
<feComposite in2="hardAlpha" operator="out"/>
<feColorMatrix type="matrix" values="0 0 0 0 0.196094 0 0 0 0 0.22825 0 0 0 0 1 0 0 0 0.34 0"/>
<feBlend mode="normal" in2="BackgroundImageFix" result="effect1_dropShadow_16112_2167"/>
<feBlend mode="normal" in="SourceGraphic" in2="effect1_dropShadow_16112_2167" result="shape"/>
</filter>
<linearGradient id="paint0_linear_16112_2167" x1="188.042" y1="42.8289" x2="188.042" y2="131.49" gradientUnits="userSpaceOnUse">
<stop stop-color="#005FE9" stop-opacity="0.42"/>
<stop offset="0.859145" stop-color="#649DF1" stop-opacity="0"/>
</linearGradient>
<linearGradient id="paint1_linear_16112_2167" x1="188.042" y1="83.2092" x2="188.042" y2="131.49" gradientUnits="userSpaceOnUse">
<stop stop-color="#B0EAEE" stop-opacity="0.4"/>
<stop offset="1" stop-color="#29C7D2" stop-opacity="0"/>
</linearGradient>
</defs>
</svg>
