<svg clip-rule="evenodd"
     fill-rule="evenodd"
     stroke-linejoin="round"
     stroke-miterlimit="2"
     viewBox="0 0 560 400"
     xmlns="http://www.w3.org/2000/svg">
    <g fill-rule="nonzero"
       transform="matrix(4.20383 0 0 4.20383 100 136.943)">
        <path d="m27.028 12.825h-8.135c-.465 0-.819.476-.653.919l1.959 5.069c.089.222-.088.465-.332.454l-2.501-.155c-.111-.011-.222.045-.288.144l-1.948 2.756c-.1.155-.31.211-.476.1l-2.878-1.959c-.111-.078-.266-.078-.376 0l-3.985 2.7c-.255.178-.598-.066-.509-.365l1.107-3.973c.044-.166-.033-.332-.199-.399l-2.115-.863c-.21-.089-.276-.343-.132-.52l1.87-2.303c.089-.11.1-.276.011-.398l-1.571-2.269c-.144-.21-.012-.498.254-.52l2.435-.189c.177-.011.321-.166.31-.354l-.188-3.409c-.011-.243.232-.42.465-.332l3.022 1.251c.132.055.287.022.376-.089l2.081-2.324c.166-.188.465-.133.564.088l1.251 3.221c.166.399.664.543 1.018.277l4.893-3.641c.553-.41.199-1.295-.487-1.196l-3.221.432c-.155.022-.299-.067-.355-.21l-1.693-4.35c-.188-.454-.775-.565-1.107-.2l-3.686 3.996c-.099.1-.243.133-.376.078l-4.848-2.048c-.432-.177-.908.122-.93.598l-.177 5.003c-.011.177-.144.31-.31.321l-4.427.287c-.52.034-.797.62-.509 1.041l2.944 4.339c.088.121.077.287-.022.409l-2.989 3.431c-.299.344-.177.875.244 1.052l3.431 1.483c.155.067.232.233.188.388l-2.191 8.567c-.155.608.531 1.073 1.04.708l8.235-5.911c.111-.077.266-.088.387 0l3.753 2.635c.309.221.73.132.94-.177l2.347-3.598c.066-.11.199-.166.321-.144l5.612.676c.453.066.907-.31.741-.731l-2.335-6.043c-.067-.166 0-.343.199-.443l4.261-2.015c.631-.321.41-1.295-.31-1.295z"
              fill="#8039e9" />
        <path d="m85.393 12.837h-6.32c-.122 0-.233.099-.233.232v2.8c0 .122.1.233.233.233h2.7c.133 0 .233.099.233.232-.022 1.439-.321 4.029-2.933 4.029-2.137 0-2.989-2.579-2.989-5.601 0-3.586.886-5.799 2.867-5.799 1.439 0 1.915 1.217 2.047 1.671.034.099.122.166.222.166h3.287c.133 0 .244-.111.233-.244-.133-1.793-1.672-4.936-5.723-4.936-2.833 0-5.49 1.727-6.342 5.988v-5.501c0-.067-.055-.111-.111-.111h-3.475c-.067 0-.111.056-.111.111v9.807c0 .121-.166.155-.221.044l-4.561-9.906c-.022-.045-.055-.067-.099-.067h-3.077c-.067 0-.111.055-.111.111v5.501c-1.14-3.487-4.239-5.988-8.268-5.988-4.494 0-7.825 3.11-8.589 7.239h-6.298c-.067 0-.111.055-.111.11v3.033c0 .066.055.111.111.111h2.933c.066 0 .111.055.111.11-.011 1.406-.255 4.14-2.945 4.14-2.136 0-2.988-2.579-2.988-5.601 0-3.586.885-5.8 2.867-5.8 1.527 0 1.97 1.384 2.069 1.749.012.056.056.089.111.089h3.498c.066 0 .122-.056.11-.122-.066-1.771-1.582-5.058-5.733-5.058-3.442 0-6.619 2.546-6.619 9.109 0 4.516 1.771 8.977 6.674 8.977 3.631 0 5.955-2.812 6.464-6.188 1.096 3.598 4.229 6.188 8.335 6.188 3.962 0 7.117-2.513 8.268-6.022v5.557c0 .066.055.111.111.111h3.475c.067 0 .111-.056.111-.111v-9.652c0-.122.166-.155.221-.044l4.561 9.751c.022.044.055.067.099.067h3.077c.067 0 .111-.056.111-.111v-5.512c.675 3.309 2.59 5.988 6.386 5.988 4.14 0 6.575-3.642 6.575-7.626v-2.989c-.011-.166-.122-.265-.243-.265zm-32.774 7.238c-2.922 0-4.948-2.247-4.948-5.423 0-3.177 2.026-5.424 4.948-5.424 2.911 0 4.947 2.247 4.947 5.424 0 3.176-2.036 5.423-4.947 5.423z"
              fill="#3e0075" />
    </g>
</svg>