<?xml version="1.0" encoding="utf-8"?>
<!-- Generator: Adobe Illustrator 25.0.1, SVG Export Plug-In . SVG Version: 6.00 Build 0)  -->
<svg version="1.0" id="katman_1" xmlns="http://www.w3.org/2000/svg" xmlns:xlink="http://www.w3.org/1999/xlink" x="0px" y="0px"
	 viewBox="0 0 186.4 122" style="enable-background:new 0 0 186.4 122;" xml:space="preserve">
<style type="text/css">
	.st0{clip-path:url(#SVGID_2_);}
	.st1{fill:#06492E;}
	.st2{fill:#B4D625;}
</style>
<g>
	<defs>
		<rect id="SVGID_1_" x="21.2" y="45" width="143.8" height="32"/>
	</defs>
	<clipPath id="SVGID_2_">
		<use xlink:href="#SVGID_1_"  style="overflow:visible;"/>
	</clipPath>
	<g class="st0">
		<path class="st1" d="M99,64l-2.5-1.5c-2.8-1.5-4.2-2.5-4.2-4.4c0-1.4,1.2-2.5,2.9-2.5c3.2,0,4.8,2.5,5.2,5.7h0.5l1.2-6.9
			c-1.1-0.5-2.8-0.8-4.5-0.8c-5.9,0-8.9,3.2-8.9,6.8c0,3.1,2.5,4.7,4.5,5.8l3.4,1.9c2.2,1.2,3.3,2.3,3.3,4c0,1.3-1,2.9-3.3,2.9
			c-3.2,0-5.7-2.9-6.7-6.9h-0.5L88.2,70c-1.7,2-3.6,3.6-6.7,3.6c-4.8,0-7-3.5-7-8.3h11.7v-3.2c0-4.4-2.2-8.3-7.4-8.3
			c-6.2,0-9.2,5.6-9.2,11.8c0,2.8,0.7,5.1,1.9,6.9c-0.8,0.8-1.9,1.8-3.3,1.8c-1.5,0-2.3-1.5-2.3-3.7V45c-0.2,0.1-0.3,0.2-0.5,0.2
			c-1.8,0.8-3.4,1.5-5.2,1.9c0.1,0.2,0.2,0.3,0.2,0.5c0.8,2,0.8,4.4,0.8,6.9v15.2c0,1.2,0.2,2.2,0.4,3c-0.6,0.8-1.5,1.8-2.6,1.8
			c-1.5,0-2.6-1.2-2.6-3.5v-8.9c0-3.9-0.8-8.4-7.2-8.4c-5.6,0-7.9,3.5-7.9,7l4.2,1.6c0,0-0.5-7.1,3.3-7.1c3.1,0,3,3.5,3,6.5v1.1
			c0,0.7-1.6,1.6-4.7,2.8c-2.7,1.1-6.8,2.5-6.8,6.4c0,2.9,2.1,4.9,5.2,4.9c2.5,0,4.9-1.4,6.4-3.5c0.1,1.1,1.8,3.5,4.4,3.5
			c2.7,0,4.5-1.6,5.7-3.2c1,2.2,2.8,3.2,4.9,3.2c2.2,0,4-1.9,5.2-3.6c1.8,2.2,4.3,3.6,7.2,3.6c3.6,0,6.2-2.4,7.6-4.7
			c0.9,1.2,3.9,4.7,8.5,4.7c3.9,0,7.6-2.5,7.6-7C103,66.7,100.8,65,99,64z M51.9,72.4c-1,0.8-2.2,1.5-3.5,1.5
			c-2.2,0-3.3-1.6-3.3-3.5c0-2.5,1.3-3.7,5.3-3.7c1.4,0,1.5,0.2,1.5,1V72.4z M74.5,63.4c0-5.2,1.2-8,3.7-8c2,0,3.4,2,3.4,6.6
			c0,1.8-0.2,2-1.6,2h-5.4L74.5,63.4z"/>
		<path class="st1" d="M110.9,69.8V45c-1.9,0.9-3.7,1.6-5.6,2.2c0.9,2,1,4.6,1,7.3v15.2c0,2.4-0.2,4.2-1.1,6.7h7.3
			C112.6,76.4,110.9,74.2,110.9,69.8z"/>
		<path class="st1" d="M123.1,53.8c-5.5,0-9.2,4.6-9.2,11.7c0,6.6,3.4,11.5,8.8,11.5c5.5,0,9.2-4.5,9.2-11.6
			C131.9,58.8,128.5,53.8,123.1,53.8z M123.3,75.2c-3,0-4.3-5.4-4.3-11.2c0-5.5,1.2-8.6,3.5-8.6c3.1,0,4.3,5.6,4.3,11.4
			C126.8,72.5,125.6,75.2,123.3,75.2z"/>
		<path class="st1" d="M151.7,55.4h6.3v-1.2h-6.3V48c-1.5,1-3.2,1.8-4.9,2.4c0.2,1.6,0.2,2.6,0.2,3.8h-7.6c-0.6-1.9-1-3.4-1-4.6
			c0-1.5,0.5-2.4,1.8-2.4c1.2,0,2.5,1.5,3.5,5.4h0.5l1.3-6.9c0,0-1.1-0.7-2.6-0.7c-5.6,0-7.9,4.3-7.9,9.2h-2.5v1.2h2.5v0.2v13.6
			c0,2.4-0.1,4.6-1.1,7.2h6.7c-1-2.5-1.1-4.9-1.1-7.2V55.6v-0.2h7.5v0.2v15.3c0,4,1.6,6.1,4.3,6.1c3.2,0,5.4-2.6,5.4-5.1
			c-1.1,0.8-1.9,1.3-2.9,1.3c-2.2,0-2.2-2.5-2.2-3.5V55.6V55.4z"/>
		<path class="st1" d="M26.1,53c0-2,1.9-3.6,4.4-3.6c3.2,0,5.1,1.5,6.2,9.1h0.7l1-10.4c-7.2-2.5-16,0.2-16.1,7.6
			c0,8.1,12.9,8.1,12.9,15.5c0,2.2-1.9,3.6-4.1,3.6c-5.7,0-7-4.8-7.3-9.8H23l-1.9,9.4c0,0,4.2,2.5,8.8,2.5c5.5-0.1,9.1-4.1,9.3-8.3
			C39.2,60.5,26.1,58.8,26.1,53z"/>
		<path class="st2" d="M159.2,74.1c0-1.5,1.2-2.9,2.9-2.9c1.7,0,2.9,1.3,2.9,2.9s-1.2,2.9-2.9,2.9C160.4,77,159.2,75.6,159.2,74.1z"
			/>
	</g>
</g>
</svg>
